<?xml version="1.0" encoding="UTF-8" standalone="no"?>
<!-- Created with Inkscape (http://www.inkscape.org/) -->

<svg
   version="1.1"
   id="svg1"
   width="530.11584"
   height="356.55164"
   viewBox="0 0 530.11584 356.55163"
   sodipodi:docname="titre.png"
   xmlns:inkscape="http://www.inkscape.org/namespaces/inkscape"
   xmlns:sodipodi="http://sodipodi.sourceforge.net/DTD/sodipodi-0.dtd"
   xmlns:xlink="http://www.w3.org/1999/xlink"
   xmlns="http://www.w3.org/2000/svg"
   xmlns:svg="http://www.w3.org/2000/svg">
  <defs
     id="defs1">
    <linearGradient
       id="linearGradient4"
       inkscape:collect="always">
      <stop
         style="stop-color:#cf551d;stop-opacity:1;"
         offset="0"
         id="stop5" />
      <stop
         style="stop-color:#f8c814;stop-opacity:1;"
         offset="0.52152586"
         id="stop7" />
      <stop
         style="stop-color:#f1f1e9;stop-opacity:1;"
         offset="0.99816179"
         id="stop6" />
    </linearGradient>
    <linearGradient
       inkscape:collect="always"
       xlink:href="#linearGradient4"
       id="linearGradient6"
       x1="127.49535"
       y1="259.26907"
       x2="149.74284"
       y2="42.783672"
       gradientUnits="userSpaceOnUse" />
  </defs>
  <sodipodi:namedview
     id="namedview1"
     pagecolor="#ffffff"
     bordercolor="#000000"
     borderopacity="0.25"
     inkscape:showpageshadow="2"
     inkscape:pageopacity="0.0"
     inkscape:pagecheckerboard="0"
     inkscape:deskcolor="#d1d1d1" />
  <g
     inkscape:groupmode="layer"
     inkscape:label="Image"
     id="g1"
     transform="translate(0.10809885,-1.0006462)">
    <path
       style="display:inline;fill:url(#linearGradient6);fill-opacity:1"
       d="m 116.48,357.53411 c -0.44,-0.0379 -4.328,-0.3773 -8.64,-0.7543 l -7.840001,-0.68546 -9.057597,-3.24718 -9.057597,-3.24718 -4.652888,-6.03741 C 71.658114,336.33023 69.48056,332.64492 66.145585,324.79999 62.738038,316.78436 56.797719,299.31666 54.261213,289.85362 51.928115,281.14945 50.805144,278.31929 48.115519,274.365 42.973562,266.80529 37.147781,263.35077 27.423824,262.09542 c -1.548897,-0.19996 -3.160177,-0.49435 -3.580623,-0.65421 -2.91032,-1.1065 -7.895934,-1.6889 -15.7632011,-1.8414 C -0.4766842,259.43396 -2.0052583,259.10114 2,258.27603 c 2.966056,-0.61103 7.8178077,-2.22094 10,-3.3182 5.224812,-2.62717 13.389767,-9.51308 15.716327,-13.25437 0.309005,-0.49691 0.840935,-1.21958 1.182065,-1.60594 0.39943,-0.45239 0.832288,-1.86193 1.215881,-3.95935 1.185046,-6.47963 1.249451,-7.95408 0.927005,-21.22266 -0.171557,-7.05953 -0.459221,-19.96351 -0.639254,-28.67551 -0.180032,-8.712 -0.46562,-22.032 -0.634641,-29.6 -0.169021,-7.568 -0.384473,-17.288 -0.478783,-21.6 -0.434835,-19.88138 -0.504455,-22.93597 -0.652759,-28.64 -0.08694,-3.344 -0.297808,-13.424002 -0.468588,-22.400002 -0.17078,-8.976 -0.394453,-19.271999 -0.49705,-22.879999 -0.102598,-3.608 -0.247453,-15.434965 -0.321901,-26.282145 -0.07445,-10.84718 -0.26669,-20.06318 -0.427206,-20.48 C 26.76058,13.941034 25.89445,13.174206 24.996364,12.653791 23.834832,11.980717 23.001471,11.147816 22.109392,9.7684121 20.564442,7.3794863 20.124439,6.9757381 17.559899,5.5937799 L 15.52,4.4945361 19.653788,4.487268 c 2.273583,-0.004 5.009583,-0.1559703 6.079999,-0.3377175 1.246629,-0.2116664 9.883068,-0.2979366 24.026212,-0.24 l 22.08,0.090449 -1.443393,0.6681192 c -0.887631,0.4108677 -2.117336,1.4460618 -3.19372,2.6885482 -1.43937,1.6614863 -2.211732,2.2325902 -4.347498,3.2146491 -3.561028,1.637417 -3.971092,2.331223 -4.308783,7.290219 -0.140017,2.056156 -0.406961,5.538465 -0.593208,7.738464 -0.690143,8.15214 -1.278793,34.295224 -0.983518,43.68 0.397177,12.623563 0.893756,32.512701 1.274334,51.040001 0.178957,8.712 0.42124,16.92 0.538407,18.24 l 0.21303,2.4 0.442573,-2.88 c 0.405106,-2.63619 2.084309,-12.84618 9.868005,-60.000002 3.033206,-18.375238 5.67442,-33.890877 7.326664,-43.039999 0.603894,-3.344 1.546617,-8.672 2.09494,-11.839999 1.622693,-9.375298 3.166383,-15.4760795 4.29311,-16.9666958 0.453264,-0.5996509 0.479243,-0.570834 0.48888,0.5422824 0.0056,0.646573 0.171133,1.8728869 0.367857,2.7251421 0.297025,1.2867823 0.260697,1.9014093 -0.214223,3.6244133 -1.158658,4.203601 -1.061489,5.160743 2.143587,21.114857 0.689466,3.432 2.188087,11.28 3.330269,17.44 1.142181,6.16 2.426909,13 2.85495,15.2 0.428042,2.2 2.879714,15.663999 5.44816,29.919999 2.568448,14.256002 5.667338,31.392002 6.886428,38.080002 4.31374,23.66542 5.43508,29.86899 7.20139,39.84 2.43138,13.72535 2.51394,13.93808 5.72287,14.7461 3.25648,0.81999 1.76447,1.14399 -6.29111,1.36614 -4.268,0.1177 -9.092,0.30585 -10.72,0.41811 -3.423397,0.23606 -3.918731,-0.17055 -1.312234,-1.07719 1.850444,-0.64366 3.368664,-1.9691 3.681014,-3.21362 0.18426,-0.73415 -0.81786,-6.85844 -4.25434,-25.99954 -0.426572,-2.376 -1.487711,-8.352 -2.358085,-13.28 -0.870374,-4.928 -2.032845,-11.408 -2.583269,-14.4 -0.550423,-2.992 -1.392058,-7.744 -1.870299,-10.56 -0.974447,-5.73778 -1.029726,-5.88202 -2.95817,-7.71882 -1.319608,-1.25691 -5.354718,-2.81775 -5.892971,-2.2795 -0.09854,0.0985 -1.176679,6.1024 -2.395865,13.3419 -2.062277,12.24577 -2.19699,13.33892 -1.933758,15.69174 0.31865,2.84816 1.850207,6.06677 3.528783,7.41584 1.788894,1.43773 2.401185,1.86884 2.654278,1.86884 0.140203,0 0.254915,0.22636 0.254915,0.50302 0,0.4174 -0.285996,0.47099 -1.68,0.31481 C 73.661076,150.79808 60.565128,149.44 59.804876,149.44 h -0.954179 l 0.168875,3.12 c 0.09288,1.716 0.249799,7.224 0.348706,12.24 0.09891,5.016 0.316944,14.232 0.484527,20.48 0.167583,6.248 0.444058,17.408 0.614389,24.8 0.170331,7.392 0.400591,15.46655 0.511689,17.94344 l 0.201996,4.50344 1.697151,1.01512 c 2.069987,1.23811 3.551157,2.78469 8.023669,8.378 1.899894,2.376 3.986893,4.96799 4.637776,5.75999 1.990861,2.4225 11.342735,16.66427 17.684741,26.93171 3.254947,5.26963 4.604222,7.83537 6.647137,12.64 1.409767,3.31556 2.936967,6.89229 3.393777,7.94829 1.46263,3.38111 6.13552,11.15585 7.3603,12.24605 2.96081,2.63545 15.01346,7.67925 20.89457,8.74396 6.59202,1.19342 20.2207,-0.35365 26.99694,-3.06457 3.99635,-1.59879 9.88312,-2.91956 17.10778,-3.83834 2.0544,-0.26126 5.46328,-0.70844 7.57528,-0.99373 8.05205,-1.08766 17.04244,-0.30199 17.37808,1.51867 0.10696,0.58023 -0.18506,0.6822 -7.25584,2.53373 l -3.95775,1.03636 -6.28225,4.40376 -6.28224,4.40377 -6.08,6.78482 c -5.59635,6.2451 -6.62972,7.227 -12.99059,12.34354 l -6.91058,5.55873 -8.12942,3.79963 -8.12941,3.79963 -7.2,1.3515 c -8.44434,1.58507 -9.8075,1.79889 -10.88,1.70661 z M 89.286234,104.93414 c -0.347678,-2.71378 -1.072915,-8.030142 -1.611637,-11.814142 -0.538723,-3.784 -1.332227,-9.674332 -1.763341,-13.089627 -0.431114,-3.415294 -0.838364,-6.264145 -0.904998,-6.33078 -0.128107,-0.128107 -0.229325,0.678674 -1.171843,9.340407 -0.325572,2.992 -0.816545,7.24 -1.091053,9.44 -0.45938,3.681635 -1.411406,11.546732 -1.560229,12.889732 -0.04792,0.43245 0.553721,0.81931 2.496866,1.6055 1.408,0.56967 3.349091,1.4922 4.313537,2.05006 0.964445,0.55787 1.792079,0.97576 1.839187,0.92865 0.04711,-0.0471 -0.198812,-2.30602 -0.546489,-5.0198 z M 457.27999,308.28837 c -1.848,-0.23198 -4.7704,-0.44455 -6.49423,-0.47239 -3.46376,-0.0559 -3.87526,-0.41265 -1.49261,-1.2939 1.67818,-0.6207 2.99774,-2.10762 3.67205,-4.13775 0.68573,-2.06455 1.69062,-2.92137 3.64665,-3.10932 1.97573,-0.18984 2.42171,-1.03875 1.93638,-3.68585 -0.16832,-0.91804 -0.44025,-2.89317 -0.6043,-4.38917 -0.16405,-1.496 -0.59047,-4.88 -0.94758,-7.52 -1.116,-8.25 -1.12277,-9.27534 -0.10337,-15.65595 0.87928,-5.50355 0.89954,-5.87308 0.50003,-9.12 -1.107,-8.99675 -2.09025,-16.80647 -2.48075,-19.70404 l -0.43127,-3.2 -0.0405,2.15209 c -0.0514,2.72898 -5.04,25.20681 -7.86836,35.45324 l -2.02869,7.34942 -4.84712,8.61622 c -2.66591,4.73891 -5.03096,8.76879 -5.25565,8.95527 -0.42725,0.35458 -6.57395,1.31375 -8.41898,1.31375 -0.89811,0 -1.72429,-0.56657 -5.22231,-3.58132 l -4.15541,-3.58132 -2.21671,-5.65693 c -2.84971,-7.2723 -5.50404,-18.06681 -7.35242,-29.90043 -2.28979,-14.65963 -2.21636,-35.89591 0.16309,-47.16656 3.65104,-17.29374 3.07692,-15.30154 5.94583,-20.63191 3.94492,-7.32957 4.39327,-7.99418 6.9783,-10.34425 l 2.40207,-2.18374 2.87793,0.0822 c 3.49376,0.0998 7.53891,0.57591 9.00515,1.05981 1.44429,0.47666 5.99338,3.06858 6.59355,3.75678 1.26519,1.45078 5.81261,12.65911 8.66111,21.34764 l 3.04241,9.28 0.58115,9.26162 c 0.33937,5.40853 0.67323,8.86988 0.80247,8.32 0.12173,-0.51789 0.52936,-2.74162 0.90584,-4.94162 0.37648,-2.2 0.9865,-5.25574 1.3556,-6.79053 0.76527,-3.18211 1.00788,-0.47541 -1.95839,-21.84947 -0.8793,-6.336 -1.64198,-12.00902 -1.69484,-12.60671 -0.0868,-0.98128 -0.2325,-1.12679 -1.50189,-1.49976 -0.77318,-0.22717 -1.92518,-0.90913 -2.56,-1.51545 -1.27708,-1.21976 -2.28615,-1.81808 -3.06615,-1.81808 -0.28269,0 -0.90416,-0.28637 -1.38103,-0.63638 -1.003,-0.73617 -4.6192,-1.29029 -8.6264,-1.32186 -2.68476,-0.0212 -3.30953,-0.2758 -2.64404,-1.07768 1.08671,-1.3094 1.28342,-4.10282 0.52088,-7.397 -1.38507,-5.98352 -5.02169,-19.44095 -6.42662,-23.7819 -0.77346,-2.38985 -1.9384,-6.07318 -2.58875,-8.18518 -2.4073,-7.81761 -4.9461,-11.5048 -8.39677,-12.19493 l -1.00947,-0.2019 0.18073,20.27841 c 0.19513,21.89422 0.13055,21.13676 2.13363,25.02799 1.49116,2.89674 1.38087,3.16345 -1.21024,2.92678 -7.66769,-0.70037 -9.50407,-0.91088 -11.33844,-1.29974 -3.65579,-0.77498 -7.38018,-0.58697 -13.08358,0.66046 l -5.10737,1.11706 -13.90462,-0.78745 c -10.94661,-0.61993 -14.34088,-0.71414 -15.9553,-0.44285 -1.31596,0.22113 -4.34369,0.26751 -8.45069,0.12945 -11.29608,-0.37973 -13.48896,-0.32576 -16.63999,0.40948 -3.5387,0.82571 -8.19782,0.90344 -11.26015,0.18787 -1.87587,-0.43833 -2.71535,-0.45688 -6.01985,-0.13302 -5.36687,0.52599 -5.36008,0.52587 -5.50797,0.10133 -0.0765,-0.21962 0.41053,-0.54383 1.14961,-0.76526 1.54769,-0.4637 3.49491,-2.00516 3.90909,-3.09451 0.31357,-0.82476 -0.18858,-2.80643 -6.75031,-26.63917 -3.7007,-13.44123 -5.93734,-21.61172 -9.4169,-34.4 -3.97854,-14.622168 -3.63218,-13.625192 -3.66861,-10.560002 -0.0167,1.408 0.177,8.968002 0.43052,16.800002 0.25352,7.832 0.70047,22.088 0.99321,31.68 l 0.53227,17.44 1.28158,4 c 1.46664,4.57758 3.45788,7.84958 4.9819,8.18625 4.15255,0.91735 3.71256,1.23546 -2.98947,2.16133 -4.82269,0.66625 -5.22954,0.76742 -3.66492,0.9113 2.45786,0.22604 6.9323,-0.31752 8.59477,-1.04409 1.30608,-0.57081 1.96523,-0.5769 1.96523,-0.0182 0,0.70101 -3.72562,4.62786 -5.17731,5.45696 l -1.65089,0.94286 0.0634,3.94178 c 0.0706,4.39079 0.51947,17.91888 1.00676,30.34178 0.17605,4.488 0.46766,12.84 0.64803,18.56 0.18037,5.72 0.61533,18.03199 0.96657,27.35999 0.35125,9.328 0.71615,19.768 0.8109,23.2 0.23138,8.38099 -0.1005,7.57648 3.24019,7.85476 l 2.78991,0.2324 1.17532,-1.36465 c 1.9925,-2.31346 2.5171,-1.00324 0.9448,2.3597 -0.76811,1.64287 -1.27798,2.24683 -2.75776,3.26666 l -1.81544,1.25113 -8.52224,0.22631 c -4.68723,0.12446 -9.67423,0.3225 -11.08223,0.44008 -3.13127,0.2615 -8.8,-0.39931 -8.8,-1.02582 0,-0.22874 0.612,-0.57355 1.36,-0.76623 2.80303,-0.72206 3.44903,-1.03215 6.02385,-2.89156 1.45151,-1.04821 3.17575,-2.05034 3.83166,-2.22695 l 1.19256,-0.32113 0.17201,-2.31735 c 0.43174,-5.81649 0.89914,-16.31411 1.34276,-30.15735 0.88254,-27.5399 1.39663,-43.36368 1.96227,-60.39881 0.55409,-16.68709 0.55338,-16.88402 -0.0623,-17.33777 -0.9457,-0.69692 -3.87007,-1.40902 -6.49173,-1.58077 -3.5254,-0.23094 -3.44118,-0.61319 0.60871,-2.76256 l 2.38024,-1.26325 -1.28,-0.0105 c -0.704,-0.006 -2.936,-0.29871 -4.96,-0.65093 -4.42749,-0.77046 -9.41886,-1.18109 -9.24368,-0.76045 0.068,0.16332 2.04394,2.08117 4.39093,4.26188 2.347,2.18071 4.40301,4.32198 4.56893,4.75837 0.16591,0.43638 1.30099,4.48149 2.52239,8.98913 1.2214,4.50764 2.65933,9.77971 3.19539,11.71571 0.9528,3.44101 0.97895,3.72824 1.16527,12.8 l 0.1906,9.28 -2.25374,8.16 c -1.23956,4.488 -2.503,9.16799 -2.80765,10.39999 -0.30465,1.232 -1.33994,4.04 -2.30065,6.24 -0.96072,2.2 -2.22377,5.17322 -2.8068,6.60715 -0.74907,1.84232 -2.48903,4.65858 -5.93115,9.6 -2.6791,3.84607 -5.77138,8.28885 -6.87173,9.87285 -1.10034,1.584 -3.1858,4.176 -4.63436,5.76 -1.44855,1.584 -4.12988,4.55057 -5.95851,6.59238 -3.15986,3.52825 -8.05044,7.31746 -9.4627,7.33168 -0.2214,0.002 -1.25084,0.43423 -2.28764,0.96 -3.62566,1.8386 -4.24608,1.20558 -1.69414,-1.72857 0.93542,-1.07552 2.32291,-3.10749 3.08331,-4.51549 l 1.38254,-2.56 -0.36811,-25.76 c -0.20246,-14.168 -0.51487,-35.19199 -0.69424,-46.71999 -0.17937,-11.528 -0.35721,-24.06659 -0.3952,-27.86353 l -0.0691,-6.90352 -1.70749,-1.66247 c -1.5128,-1.47292 -3.49934,-2.84175 -3.70664,-2.55408 -0.0411,0.057 -0.23407,2.28792 -0.42891,4.95765 -0.70724,9.69084 -4.6186,26.28286 -6.27283,26.60941 -0.43301,0.0855 -0.52413,-0.19371 -0.52413,-1.60584 0,-2.34016 -1.29704,-7.88811 -2.56725,-10.98119 -0.83268,-2.02764 -1.0545,-3.02731 -1.07241,-4.83284 l -0.0226,-2.27641 -3.04888,-0.20194 c -4.28592,-0.28386 -7.76963,-0.24561 -8.30166,0.0912 -0.46533,0.29454 -0.30072,37.54022 0.1737,39.3036 0.30426,1.13088 2.99907,1.07543 2.99907,-0.0617 0,-0.8521 0.99937,-2.78185 2.05401,-3.9662 0.54232,-0.60902 0.6567,-1.12897 0.616,-2.8 -0.1264,-5.1891 1.86754,-0.43667 3.43534,8.18791 1.04096,5.72637 -0.0434,14.39527 -2.35158,18.79999 -1.0373,1.97948 -1.38209,1.72571 -1.36691,-1.0061 0.01,-1.73125 -0.1252,-2.52544 -0.50245,-2.96 -0.28357,-0.32664 -0.90926,-1.2779 -1.39041,-2.11389 -0.83504,-1.4509 -0.93891,-1.52 -2.28441,-1.52 -1.5728,0 -2.83801,0.9161 -2.56378,1.85636 0.0872,0.299 0.31394,3.56763 0.50387,7.26363 0.47799,9.30216 1.26194,22.89754 1.47934,25.65531 l 0.18095,2.2953 2.29501,0.38777 c 3.00859,0.50833 8.92153,0.22132 10.00013,-0.48541 0.75534,-0.49491 0.7632,-0.54149 0.2848,-1.68647 -0.57054,-1.36548 -0.40688,-2.47027 0.67642,-4.5665 0.79335,-1.53514 1.29498,-3.37702 1.5905,-5.84 0.36622,-3.0522 1.75954,-1.23014 3.60936,4.72 1.93038,6.20929 2.41931,13.07255 1.38005,19.37202 -0.36404,2.20661 -0.57857,4.33061 -0.47674,4.72 0.1439,0.55026 0.0474,0.70798 -0.43321,0.70798 -0.3401,0 -2.83867,0.50565 -5.5524,1.12367 l -4.93405,1.12367 -11.04492,-0.64315 c -13.94041,-0.81176 -12.75103,-0.82651 -12.56324,0.15581 0.0841,0.44 0.25703,0.8 0.38426,0.8 0.27078,0 0.97406,1.4549 0.97405,2.01506 0,0.6351 -11.03715,0.48669 -12.47999,-0.16781 -0.616,-0.27943 -1.73962,-0.67344 -2.49692,-0.87557 -1.69013,-0.4511 -1.8546,-0.84023 -1.40692,-3.32878 0.40762,-2.26591 0.19422,-3.60197 -1.668,-10.4429 -0.64679,-2.376 -1.61354,-5.976 -2.14834,-8 -2.55541,-9.67125 -6.04532,-20.19658 -8.18145,-24.67468 -1.87075,-3.92178 -3.20245,-5.23004 -5.96927,-5.86423 l -0.91091,-0.20879 0.22134,2.97385 c 0.12174,1.63562 0.24498,10.89385 0.27387,20.57385 l 0.0525,17.6 1.6476,3.2845 c 1.4985,2.98725 1.59655,3.31181 1.08342,3.58643 -0.87779,0.46978 -9.14514,-0.27919 -13.84511,-1.25428 -0.82948,-0.17209 -2.55748,-0.33627 -3.84,-0.36484 -1.28251,-0.0286 -2.43355,-0.11054 -2.55787,-0.18213 -0.48806,-0.28108 0.16966,-1.04159 1.07228,-1.23983 1.13427,-0.24913 2.67813,-2.22352 3.17157,-4.05604 0.32893,-1.22156 1.01491,-2.14455 2.00614,-2.69927 0.44634,-0.24978 0.46638,-3.78077 0.19948,-35.1561 -0.16319,-19.18314 -0.35396,-43.22315 -0.42395,-53.42224 l -0.12725,-18.5438 -0.75612,-0.60991 c -2.36213,-1.90537 -3.83814,-3.51874 -3.44272,-3.76313 0.86241,-0.53299 5.40236,-0.68717 16.34972,-0.55523 l 11.29688,0.13615 3.52,1.46059 3.52,1.4606 2.36214,3.24546 2.36215,3.24545 1.3884,6.31381 c 2.15421,9.79634 1.91937,13.77422 -1.65739,28.07382 l -2.40125,9.6 -3.50702,5.19828 c -1.92887,2.85905 -3.50703,5.41745 -3.50703,5.68533 0,0.26787 0.77615,2.03465 1.72478,3.92616 7.91051,15.77311 11.53822,26.33474 13.7633,40.07022 l 1.01086,6.24 1.35156,-0.0277 c 0.74335,-0.0152 1.40837,-0.0872 1.47782,-0.16 0.1694,-0.17751 0.64974,-36.03839 0.64685,-48.2923 -0.002,-7.00736 -0.28772,-14.72379 -1.01431,-27.36 -0.5566,-9.68 -1.18619,-20.948 -1.39908,-25.04 -0.361,-6.93867 -0.42773,-7.44 -0.99032,-7.44 -0.86788,0 -2.46592,-0.88092 -3.85238,-2.12361 -0.66051,-0.59202 -1.41651,-1.07639 -1.68,-1.07639 -0.2635,0 -0.47908,-0.18815 -0.47908,-0.41811 0,-0.32474 0.98248,-0.41406 4.4,-0.4 7.00962,0.0288 28.92165,-0.46593 34,-0.76772 4.27567,-0.25409 4.74868,-0.22629 6.02412,0.35403 2.13326,0.97062 6.19284,0.92788 12.37588,-0.1303 2.816,-0.48194 5.99489,-0.87662 7.06422,-0.87708 2.46428,-10e-4 3.22085,-0.68854 3.64836,-3.31524 0.16245,-0.99817 0.36055,-1.92076 0.44022,-2.05022 0.411,-0.66787 -4.35965,-18.79036 -7.98037,-30.31536 -4.01513,-12.78049 -6.08389,-16.31361 -10.12636,-17.29432 l -0.87393,-0.21202 0.1511,20.54686 0.15111,20.54686 0.86712,1.96631 c 0.47692,1.08147 1.19819,2.50345 1.60283,3.15995 0.88715,1.43937 0.91057,1.72598 0.15713,1.92301 -1.19991,0.31378 -9.68462,-0.53 -13.66143,-1.3586 -3.33325,-0.6945 -7.33126,-0.44903 -12.70955,0.78035 l -5.02955,1.14967 -11.29045,-0.64814 C 199.1607,170.20346 192.064,169.77106 189.6,169.59906 c -2.464,-0.172 -5.02,-0.31416 -5.68,-0.3159 -1.57931,-0.004 -1.52408,-0.43377 0.12576,-0.97827 1.75312,-0.57858 3.01293,-1.96892 3.8529,-4.25211 0.78575,-2.13582 1.56425,-2.78184 3.6333,-3.01506 0.7935,-0.0894 1.51345,-0.27705 1.59989,-0.41691 0.53159,-0.86013 0.81175,-53.38506 0.33102,-62.060812 -0.52893,-9.545538 -2.0052,-38.982733 -2.17215,-43.313263 l -0.0969,-2.513264 -1.52137,-0.577503 c -0.83676,-0.317627 -1.99077,-0.986658 -2.56448,-1.486736 -0.5737,-0.500078 -1.37176,-1.125233 -1.77345,-1.389233 -0.65759,-0.432181 0.37924,-0.487761 10.40757,-0.557904 6.12585,-0.04285 15.71228,-0.231797 21.30318,-0.419889 11.5688,-0.389204 11.29115,-0.422126 11.78274,1.397092 1.03745,3.839242 -1.6802,21.991245 -4.39278,29.3407 -1.44492,3.914846 -1.80126,4.067075 -2.07722,0.887375 -0.26258,-3.025623 -1.31322,-7.364269 -2.3991,-9.907136 -0.67477,-1.580175 -0.87879,-2.612729 -0.93657,-4.740238 l -0.0739,-2.72 H 212.91423 206.88 l 0.009,5.44 c 0.0193,11.726468 0.24977,31.127527 0.38887,32.740181 0.1266,1.46773 0.25921,1.74298 0.96999,2.01321 1.22752,0.46671 2.60217,0.081 2.40457,-0.67462 -0.0911,-0.34835 0.29739,-1.37183 0.91462,-2.409565 0.59014,-0.992194 1.25842,-2.115663 1.48508,-2.496598 0.2645,-0.444528 0.34651,-1.237047 0.22898,-2.212609 -0.14031,-1.164646 -0.0803,-1.52 0.25653,-1.52 0.60246,0 1.05427,1.102969 1.66126,4.055563 0.28317,1.37744 0.75137,3.296439 1.04045,4.264439 1.43507,4.80546 0.31766,16.08521 -2.00517,20.2412 -1.13586,2.03229 -1.39225,1.91495 -1.19466,-0.54672 0.15548,-1.93688 0.0984,-2.17027 -0.91684,-3.74721 -0.59546,-0.92493 -1.23009,-1.97545 -1.41028,-2.33448 -0.45669,-0.90994 -2.96033,-1.08071 -3.93054,-0.26811 l -0.6869,0.57532 0.99789,17.92 c 0.54884,9.856 1.02447,17.95498 1.05694,17.99774 0.49755,0.65505 9.68812,0.97646 11.66985,0.4081 1.46313,-0.41962 1.63668,-0.80402 1.08885,-2.4118 -0.45509,-1.33563 -0.44017,-1.41253 0.86803,-4.47447 0.84453,-1.97668 1.39395,-3.80877 1.50307,-5.01217 0.26072,-2.87528 0.91816,-2.41624 2.59757,1.81366 1.79196,4.5134 2.2787,7.12902 2.50117,13.44066 0.16677,4.73136 -0.33984,10.59483 -1.08264,12.53054 -0.13485,0.35142 0.14277,0.32339 1.30026,-0.13128 1.66263,-0.65308 2.95626,-2.21179 3.85741,-4.6478 0.39646,-1.07174 0.8565,-1.67765 1.54345,-2.03289 l 0.97865,-0.50608 -0.20384,-4.68711 c -0.11214,-2.57791 -0.29105,-26.6471 -0.3976,-53.4871 l -0.19372,-48.800001 -0.83266,-0.64 c -1.7714,-1.361528 -3.56442,-3.388999 -3.14084,-3.551539 0.23069,-0.08852 6.52453,-0.117643 13.98631,-0.06471 L 257.76,49.44 l 2.88,1.28 c 3.77998,1.679993 3.61251,1.551646 5.65471,4.333709 2.46233,3.354387 2.36313,3.098604 3.99734,10.306779 l 1.46902,6.479512 -0.39498,5.759999 c -0.37278,5.436188 -0.52804,6.294713 -2.76176,15.271517 l -2.36678,9.511514 -3.51878,5.18193 c -1.93532,2.85006 -3.51877,5.34525 -3.51877,5.54488 0,0.19962 0.69023,1.72357 1.53386,3.38655 7.84262,15.45969 12.29612,28.47037 14.17479,41.41103 0.79742,5.49278 1.53078,8.66245 2.96184,12.80142 1.21504,3.5142 1.67725,4.03069 1.96137,2.1917 0.34131,-2.20918 0.63872,-2.78104 1.95872,-3.76633 0.71784,-0.53582 1.69292,-1.26221 2.16684,-1.61421 l 0.86167,-0.64 -0.9548,-7.52 c -0.52514,-4.136 -1.11391,-8.6 -1.30838,-9.92 -0.51134,-3.4709 -0.47259,-7.44234 0.10302,-10.56 1.3527,-7.32656 1.35184,-7.09791 0.0638,-16.96 -2.04673,-15.67126 -2.45871,-19.77383 -2.28154,-22.720001 0.16872,-2.80555 1.54098,-10.309602 2.43086,-13.292916 C 283.1982,84.813682 283.02728,82.973189 281.62512,72.48 280.0974,61.047104 279.04,52.508853 279.04,51.605741 c 0,-0.218998 -0.58807,-0.492214 -1.30681,-0.607146 -0.87792,-0.140384 -1.82641,-0.65249 -2.89,-1.560359 -0.87076,-0.743266 -2.0467,-1.501308 -2.6132,-1.684539 -0.75258,-0.24342 1.72422,-0.319755 9.19604,-0.283423 l 10.22603,0.04972 0.38398,1.28 c 0.73784,2.459579 4.64498,15.081224 6.19118,20 1.9405,6.173143 6.40948,20.809238 10.21055,33.439996 1.58896,5.28 3.22048,10.68001 3.62562,12 L 312.8,116.64 l 0.0816,-31.338074 0.0816,-31.338067 -1.4646,-1.864214 c -2.39298,-3.045879 -2.78147,-2.917536 8.60742,-2.843637 5.4263,0.03521 10.0703,0.142417 10.32,0.238238 0.71796,0.275506 0.54546,0.949185 -0.82476,3.221037 l -1.27877,2.120233 0.16982,5.622239 c 0.0934,3.092231 0.30755,9.222239 0.4759,13.622238 0.35225,9.206642 1.07971,37.146147 1.74921,67.181947 l 0.46323,20.78195 1.36969,2.01043 c 1.5591,2.28845 1.72142,2.37817 2.00087,1.10585 0.28564,-1.30051 1.4384,-2.25714 3.05177,-2.53256 1.16114,-0.19822 1.39907,-0.36482 1.47397,-1.03201 0.42781,-3.81119 0.9106,-14.33323 1.58553,-34.5556 1.0732,-32.15513 1.69663,-48.28837 2.21343,-57.280006 0.0759,-1.32 0.23686,-5.357661 0.35776,-8.97258 l 0.21982,-6.57258 -0.79153,-0.518632 c -1.15738,-0.758343 -3.94009,-1.516699 -6.40651,-1.745929 -2.53775,-0.235859 -2.50569,-0.415479 0.32839,-1.839778 l 2.13619,-1.073565 6.08,-0.15033 c 5.32799,-0.131736 6.27129,-0.235443 7.62653,-0.838468 0.8506,-0.378476 1.61906,-0.688138 1.7077,-0.688138 0.99699,0 -4.44815,5.118956 -6.12214,5.755407 -1.10311,0.419402 -1.10434,0.21823 0.15219,24.964592 0.32167,6.335105 0.83601,19.521918 2.26535,58.079997 0.37188,10.03201 0.68228,20.22447 0.68977,22.64994 l 0.0136,4.40994 1.2335,0.97695 c 1.12714,0.89271 1.23349,1.11061 1.23349,2.5272 0,3.97084 2.83317,3.06488 4.35161,-1.39151 0.61181,-1.79557 1.57106,-2.52774 3.62074,-2.76362 l 1.46765,-0.1689 0.2369,-8.8 c 0.58203,-21.62078 0.73488,-43.74894 0.35365,-51.2 -0.21162,-4.135997 -0.61147,-13.207997 -0.88857,-20.159997 -0.2771,-6.952 -0.57085,-13.575999 -0.65279,-14.719999 -0.0819,-1.144 -0.23386,-4.384 -0.3376,-7.2 -0.22544,-6.119099 -0.29809,-6.56 -1.08094,-6.56 -0.96982,0 -2.3809,-0.721818 -3.80808,-1.947962 l -1.33618,-1.147962 2.15681,0.04838 c 3.82429,0.08579 26.27101,-0.453891 33.16167,-0.797295 7.67233,-0.38236 7.67153,-0.382576 7.97125,2.178126 0.27485,2.348265 -0.59372,10.251632 -1.85723,16.899519 -1.15952,6.100691 -3.74729,14.988849 -3.93919,13.529823 -0.40624,-3.088631 -1.85507,-8.972035 -2.68619,-10.90806 -0.79907,-1.861346 -1.01212,-2.824836 -1.05105,-4.753205 -0.0269,-1.330249 -0.1549,-2.590249 -0.28453,-2.8 -0.28052,-0.453888 -11.61006,-0.541272 -12.31449,-0.09498 -0.45454,0.287969 -0.45526,0.190652 0.22692,30.685298 0.23363,10.443694 0.11479,9.974714 2.52964,9.983414 1.32275,0.005 1.36,-0.0237 1.36,-1.03777 0,-0.68748 0.46329,-1.75032 1.36,-3.12 1.15627,-1.766141 1.35276,-2.305028 1.31167,-3.597329 -0.0448,-1.40741 0.23904,-1.926976 0.67089,-1.228228 0.0992,0.160475 0.46809,1.636475 0.8198,3.28 0.35171,1.643527 0.87077,3.780227 1.15346,4.748227 1.38704,4.74945 0.32007,15.97144 -1.90144,19.9986 -0.59774,1.08357 -1.59376,1.61287 -1.20697,0.6414 0.42994,-1.07985 -0.0401,-3.56733 -0.95504,-5.05432 -0.54086,-0.87902 -1.10555,-1.91954 -1.25486,-2.31225 -0.31147,-0.81923 -1.58923,-1.12064 -3.09575,-0.73026 -1.77139,0.45901 -1.77164,0.4608 -1.22267,8.78427 0.27688,4.19791 0.76639,12.21972 1.0878,17.82626 0.4282,7.46917 0.69492,10.262 0.99792,10.44927 1.16561,0.72039 8.94674,0.92247 11.28418,0.29307 1.49045,-0.40134 1.67174,-0.79322 1.05254,-2.27516 -0.55248,-1.32227 -0.45638,-1.7551 1.23018,-5.54088 0.62739,-1.40829 1.14224,-3.08809 1.14439,-3.73383 0.0124,-3.71309 1.23618,-2.55191 3.19316,3.0297 1.86362,5.31536 2.45947,13.7549 1.47,20.82125 -0.29242,2.08841 -0.48839,3.83968 -0.43547,3.89171 0.0529,0.052 0.74421,-0.21668 1.53621,-0.59712 1.28114,-0.6154 1.58685,-0.98914 2.77103,-3.38759 0.90661,-1.83627 1.61102,-2.84258 2.20916,-3.15598 l 0.87814,-0.4601 -0.20671,-9.48402 c -0.1137,-5.21621 -0.20782,-29.25892 -0.20917,-53.428233 l -0.002,-43.944212 -0.84181,-0.695787 c -0.46299,-0.382682 -1.47896,-1.299767 -2.2577,-2.037965 l -1.41589,-1.34218 1.08718,-0.203955 c 0.59794,-0.112175 6.76191,-0.154055 13.6977,-0.09307 l 12.61052,0.110888 3.2867,1.397657 c 3.49913,1.487989 3.60296,1.579558 6.43644,5.675988 1.27289,1.840253 1.44997,2.381145 2.82857,8.64 l 1.47067,6.676848 -0.39517,5.439999 c -0.41519,5.7156 -0.57245,6.559259 -3.36268,18.039861 l -1.74012,7.159861 -3.51957,5.29022 -3.51956,5.29021 1.86384,3.71814 c 8.31583,16.58904 12.62297,29.11535 14.2565,41.46171 0.71716,5.42034 0.8047,5.54855 3.17355,4.64792 l 0.82083,-0.31208 0.004,-7.12792 c 0.002,-3.92036 0.15003,-13.31992 0.32885,-20.88792 0.62274,-26.35636 0.45972,-32.84592 -1.79608,-71.500686 -0.56311,-9.649355 -0.38118,-8.834302 -2.0309,-9.098104 -0.81484,-0.130298 -1.77767,-0.643465 -2.6919,-1.434732 l -1.42333,-1.231879 12.52481,-0.212019 c 6.88865,-0.116611 16.31077,-0.370827 20.93804,-0.564925 10.13549,-0.425147 9.66692,-0.58084 9.66651,3.21194 -7.1e-4,6.446383 -2.48436,20.866406 -4.57983,26.590403 l -1.1129,3.04 -0.23036,-1.6 c -0.43277,-3.005868 -1.49541,-7.037678 -2.6024,-9.873838 -0.92836,-2.37853 -1.0957,-3.189051 -1.04152,-5.044692 0.0355,-1.21597 0.007,-2.266523 -0.0641,-2.334563 -0.12086,-0.116234 -10.42737,-0.307988 -12.1001,-0.225123 l -0.77147,0.03822 0.19473,19.71062 c 0.22394,22.667418 0.0444,21.349788 2.88613,21.185478 1.58168,-0.0915 1.65739,-0.13641 1.5653,-0.92937 -0.1004,-0.8644 0.83537,-2.77868 1.99078,-4.07251 0.49937,-0.5592 0.66599,-1.17566 0.66599,-2.464 0,-2.428181 0.43272,-1.710276 1.29173,2.14306 0.40543,1.8187 0.9139,3.95472 1.12993,4.74672 1.23672,4.53412 0.21786,15.17077 -1.84983,19.31182 -0.94998,1.90254 -1.1864,1.73467 -1.08418,-0.76983 0.07,-1.71577 -0.0408,-2.11933 -0.98437,-3.58491 -0.5848,-0.90833 -1.21071,-1.94526 -1.39091,-2.30429 -0.50918,-1.01454 -3.01754,-1.08121 -4.09486,-0.10884 l -0.81549,0.73605 0.47545,6.20461 c 0.26149,3.41253 0.79204,11.47653 1.17899,17.92 l 0.70354,11.71539 2.86816,0.45353 c 3.19093,0.50457 8.99085,0.16742 9.88495,-0.57462 0.42763,-0.35489 0.42373,-0.55459 -0.035,-1.79232 -0.56915,-1.53563 -0.70209,-0.95887 1.34661,-5.84225 0.46047,-1.09761 0.94029,-2.79452 1.06626,-3.7709 0.27459,-2.1284 0.6335,-2.26526 1.57969,-0.60238 3.18568,5.59868 4.49522,17.55312 2.87943,26.28565 -0.28868,1.56018 -0.32309,2.42229 -0.10537,2.64 0.1778,0.17781 0.21976,0.32329 0.0932,0.32329 -0.12654,0 -2.49534,0.52096 -5.264,1.1577 -5.83821,1.34266 -5.93112,1.34483 -20.23395,0.47184 -5.192,-0.31691 -9.49077,-0.53442 -9.55284,-0.48336 -0.0621,0.0511 0.33376,1.03805 0.8796,2.19332 l 0.99244,2.1005 h 7.82151 c 4.30184,0 7.89882,0.12506 7.99329,0.27792 0.20286,0.32823 0.93856,2.74519 7.26952,23.88208 2.63579,8.8 5.85099,19.528 7.14488,23.84 1.2939,4.312 3.17587,10.648 4.18217,14.08 1.00629,3.432 1.89934,6.31199 1.98455,6.39999 0.0852,0.088 0.0959,-13.66847 0.0237,-30.56994 l -0.13126,-30.72994 -1.6554,-2.18673 c -2.52142,-3.33071 -2.41964,-3.40392 4.65913,-3.35103 3.11781,0.0233 7.88559,0.13129 10.59507,0.24 6.14497,0.24654 6.17077,0.26862 4.21434,3.60708 l -1.3775,2.35057 0.36742,18.24 c 0.20208,10.032 0.51029,24 0.68491,31.04 0.721,29.0673 1.19161,54.63171 1.07081,58.16745 l -0.12873,3.76746 0.88121,0.33934 c 2.07417,0.79871 5.01612,-0.16061 8.31932,-2.7128 2.86101,-2.21054 3.40634,-1.94361 2.01963,0.98859 -3.4484,7.29164 -12.53366,11.40873 -20.81774,9.43381 -5.89685,-1.40581 -10.37113,-1.24405 -13.39184,0.48415 -0.92234,0.52768 -1.49915,0.689 -1.70994,0.47821 -0.54575,-0.54575 1.81813,-2.7872 4.07775,-3.86656 2.54506,-1.21571 3.66403,-2.26978 3.66403,-3.45152 0,-0.87159 -1.18165,-5.49606 -3.54359,-13.86814 -0.67032,-2.376 -2.65634,-9.576 -4.41338,-16 -1.75704,-6.424 -4.34638,-15.856 -5.75408,-20.96 -1.40771,-5.10399 -3.2926,-11.94399 -4.18866,-15.19999 -0.89605,-3.256 -1.6979,-6.064 -1.78188,-6.24 -0.084,-0.176 -0.077,1.768 0.0156,4.32 0.16248,4.48061 1.17436,38.97243 1.6147,55.03999 l 0.21486,7.84 1.22059,3.93464 c 1.39965,4.51185 3.46923,7.90676 5.03028,8.25162 4.18171,0.92379 3.68134,1.31612 -2.87782,2.25645 -5.87247,0.84189 -10.9015,0.91789 -16.25658,0.24567 z m -37.37791,-31.86939 c -1.07102,-1.88252 -1.82494,-4.31403 -2.15994,-6.96622 -0.12138,-0.96097 -0.36975,-1.9859 -0.55192,-2.27761 -0.38967,-0.62395 -0.10422,-1.57516 0.47269,-1.57516 0.67381,0 4.08415,3.87883 4.77163,5.42712 1.91824,4.32011 2.02771,-5.78501 0.11233,-10.36916 -1.79766,-4.30241 -0.70435,-17.16835 1.42285,-16.74392 0.43826,0.0874 0.49434,0.59746 0.3974,3.61389 -0.11949,3.71825 1.01489,9.35024 1.48106,7.35314 0.082,-0.35141 0.85174,-2.76643 1.71048,-5.3667 1.69267,-5.12549 1.80103,-6.05731 1.06664,-9.17298 -0.96413,-4.09041 1.03417,-3.8403 3.07757,0.38519 1.23298,2.54965 1.25712,2.66831 1.25712,6.17918 0,3.31048 0.0481,3.59218 0.64,3.74696 0.45356,0.11861 0.64,0.43649 0.64,1.09116 0,0.50809 0.38399,2.21357 0.8533,3.78996 0.65437,2.19801 0.85402,3.55619 0.85642,5.82616 0.002,1.628 0.0461,2.96 0.0985,2.96 0.24726,0 1.0276,-1.8834 1.17939,-2.84653 0.52012,-3.30024 1.50384,-1.72199 1.71297,2.74824 l 0.17958,3.83861 -1.63664,3.11876 c -1.22884,2.34168 -1.62455,3.42719 -1.58813,4.35663 0.0548,1.39815 0.35129,1.36723 1.1125,-0.116 0.28782,-0.56084 1.15136,-1.9849 1.91896,-3.16458 4.45968,-6.85377 6.38736,-16.47537 5.40378,-26.97169 -0.22775,-2.43039 -0.8091,-3.04906 -0.8124,-0.86455 -0.003,2.06437 -0.57964,3.36562 -2.43726,5.50111 -1.9459,2.23699 -2.14865,2.38995 -2.82422,2.13071 -0.34411,-0.13205 -0.15612,-0.83047 0.84795,-3.15019 3.78474,-8.74395 3.86433,-24.12018 0.17775,-34.34051 l -1.03884,-2.88 -0.20508,2.27424 c -0.28954,3.21103 -1.57396,5.56576 -3.03593,5.56576 -0.20625,0 -1.47359,-0.89167 -2.8163,-1.98149 -7.75529,-6.2946 -9.28995,-13.17623 -5.47614,-24.5558 0.96907,-2.89151 1.70783,-5.3114 1.6417,-5.37754 -0.19702,-0.19702 -2.20377,2.4539 -3.94887,5.21645 -3.54492,5.61174 -5.89805,12.452 -5.93708,17.25838 -0.0217,2.67407 0.78311,5.25018 3.57526,11.44376 1.89433,4.20203 2.35399,6.16788 2.33733,9.99624 -0.0199,4.5678 -0.87147,7.2 -2.32941,7.2 -0.77647,0 -4.32384,-5.24702 -4.62205,-6.8366 -0.30973,-1.65103 -0.64963,-1.68852 -1.06624,-0.11759 -1.82768,6.89169 -0.9528,14.40556 2.59817,22.31418 1.6347,3.64075 1.77733,6.73166 0.30978,6.71304 -0.3018,-0.004 -1.26371,-0.72382 -2.13756,-1.6 -1.48349,-1.48742 -2.45508,-2.10578 -1.87453,-1.19304 0.13993,0.22 0.32846,2.92 0.41896,6 0.14566,4.95711 0.24253,5.73195 0.8438,6.74937 0.37359,0.63214 1.08699,2.07214 1.58532,3.2 0.99705,2.25654 2.38555,4.54703 2.61645,4.31613 0.0811,-0.0811 -0.28745,-0.91207 -0.81909,-1.84651 z M 261.03935,258.63999 c -0.14564,-1.15993 0.27388,-3.66889 1.05677,-6.32 0.47167,-1.59724 2.44908,-5.52267 5.39348,-10.70681 6.03142,-10.61941 8.50446,-19.75693 8.27376,-30.57036 -0.17585,-8.2426 -0.72488,-10.62866 -3.33254,-14.48303 -2.35395,-3.47936 -2.21855,-3.66305 -2.23842,3.03674 -0.0268,9.02446 -1.74569,17.28922 -4.61915,22.20927 -2.27378,3.89324 -3.14996,5.95549 -6.77837,15.9542 -0.51051,1.4068 -0.67076,2.85352 -0.79851,7.20908 -0.17487,5.9621 0.0202,7.44935 1.48854,11.35091 0.49679,1.32 0.9914,2.652 1.09913,2.96 0.34289,0.98034 0.61137,0.60295 0.45531,-0.64 z m -81.3412,-25.39603 c 4.79109,-6.47715 8.16713,-16.77544 8.11824,-24.76396 l -0.0235,-3.84 -0.56528,2.24 c -0.3109,1.232 -0.86777,2.888 -1.23748,3.68 -0.36971,0.792 -1.4071,3.8094 -2.30531,6.70534 -1.03265,3.32939 -2.39268,6.81189 -3.69896,9.47161 -1.13622,2.31346 -2.06585,4.29456 -2.06585,4.40245 0,0.1079 -0.48809,1.24567 -1.08464,2.52838 -1.8713,4.02371 -1.84523,4.57047 0.12643,2.65222 0.9045,-0.88 2.13586,-2.26422 2.73636,-3.07604 z m -4.6227,-5.96571 c 2.57477,-3.66108 7.64455,-17.64955 7.64455,-21.09275 0,-0.67635 0.15082,-1.73278 0.33515,-2.34762 0.42295,-1.41069 1.26648,-6.02874 1.25631,-6.87788 -0.0214,-1.79125 -3.42121,6.31809 -5.43336,12.96 -1.15315,3.80641 -2.7981,8.32537 -4.6338,12.72979 -0.69679,1.67182 -1.79286,6.41938 -1.75236,7.59021 0.0128,0.36839 1.19332,-0.98501 2.58351,-2.96175 z m -2.68193,-7.16831 c 0.56844,-0.94047 1.19169,-2.50194 1.38501,-3.46994 0.64883,-3.2489 4.06763,-13.87405 5.19706,-16.15175 0.34684,-0.69946 0.82821,-2.21146 1.06971,-3.36 0.45742,-2.17546 0.90466,-8.13814 0.50372,-6.71579 -0.26536,0.94137 -2.78071,5.84971 -3.6015,7.02781 -1.82622,2.62119 -5.86444,15.51503 -6.54091,20.88477 -0.27126,2.15322 -0.57074,4.49096 -0.6655,5.19496 l -0.17229,1.28 0.89559,-1.49006 c 0.49257,-0.81953 1.36067,-2.25953 1.92911,-3.2 z M 168.15265,215.36 c 0.78314,-7.02327 2.2527,-11.62339 6.12752,-19.18081 2.59089,-5.05325 3.34687,-7.00222 3.79324,-9.77919 0.19353,-1.204 0.0898,-1.10195 -1.74698,1.71852 -1.074,1.64918 -2.24432,3.57008 -2.60071,4.26867 -0.35639,0.69858 -1.1258,1.94125 -1.7098,2.76148 -4.3383,6.09314 -7.69301,19.56689 -5.9485,23.89133 l 0.38727,0.96 0.75085,-1.44 c 0.41297,-0.792 0.83917,-2.232 0.94711,-3.2 z m 78.49762,-103.85488 c 9.39111,-3.90635 13.43163,-13.310356 15.59884,-36.305122 l 0.43731,-4.639999 -0.93182,-3.208658 c -0.99509,-3.426483 -3.78353,-9.685011 -4.62697,-10.385004 -0.52777,-0.438012 -12.26977,-1.638855 -12.493,-1.277648 -0.0641,0.103746 -0.12438,12.816232 -0.13392,28.249969 -0.0192,31.160672 -0.22257,28.553182 2.14956,27.566462 z M 419.73551,99.413399 c 1.04327,-1.141501 1.86857,-2.492492 2.49242,-4.08 0.51297,-1.305371 1.03032,-2.517401 1.14966,-2.693401 1.02032,-1.504772 1.90176,-11.576615 1.34265,-15.341801 -0.91333,-6.150521 -1.26218,-6.812491 -4.72878,-8.973129 -3.91731,-2.441551 -3.78075,-2.835213 -3.55051,10.23493 0.0961,5.456 0.18021,12.764 0.18689,16.24 l 0.0122,6.320002 h 0.76789 c 0.51956,0 1.27231,-0.55191 2.32763,-1.706601 z m 93.86448,201.405481 c 0,-0.16561 0.14568,-0.39115 0.32372,-0.50118 0.46875,-0.28971 2.32349,-3.3026 2.95348,-4.79771 0.29664,-0.704 0.66684,-2.8239 0.82266,-4.7109 0.46939,-5.68407 3.45413,-10.21617 8.9093,-13.52808 3.41092,-2.07082 4.36752,-1.74728 2.35327,0.79592 -1.49919,1.89288 -2.55577,4.44279 -2.5593,6.17655 -0.008,4.13162 -2.28738,10.55618 -4.40368,12.41431 -0.59499,0.52241 -2.22572,1.51472 -3.62384,2.20513 -1.39811,0.6904 -2.86062,1.47843 -3.25002,1.75118 -0.79434,0.55637 -1.52559,0.64974 -1.52559,0.19478 z m -173.79933,-4.09889 c -1.24772,-1.892 -2.61573,-4.124 -3.04002,-4.96 -0.42428,-0.836 -0.82612,-1.52 -0.89297,-1.52 -0.0668,0 -0.65001,1.36388 -1.29591,3.03085 -1.54816,3.99558 -1.63092,4.07051 -5.98216,5.41581 -5.7891,1.78985 -7.25032,1.37599 -9.90898,-2.80653 -7.56217,-11.89659 -7.48275,-11.73918 -10.57133,-20.95103 l -2.85966,-8.5291 -1.06998,-11.68 c -1.60683,-17.54022 -1.43688,-29.25566 0.66845,-46.07999 l 1.46158,-11.68 2.55868,-5.6 c 4.72195,-10.33464 4.37866,-9.78185 7.79993,-12.56 3.42157,-2.77841 3.20827,-2.72387 8.00148,-2.04593 2.90104,0.41032 2.92009,0.41907 6.34958,2.91836 1.8919,1.37874 3.7505,2.98669 4.13023,3.57322 0.37973,0.58653 0.76684,1.06821 0.86024,1.07039 0.0934,0.002 1.09498,-1.86398 2.22571,-4.14702 1.13072,-2.28304 2.25273,-4.22652 2.49335,-4.31885 0.55989,-0.21485 1.67229,0.37301 1.66727,0.88109 -0.0154,1.55387 -2.29409,11.25913 -4.17806,17.79465 -3.36574,11.6758 -3.49847,12.03409 -4.45809,12.03409 -1.06676,0 -1.70027,-1.88903 -2.86107,-8.53129 l -0.87578,-5.01128 -1.68187,-2.26872 c -1.56492,-2.11096 -2.55808,-2.76292 -3.03453,-1.99201 -0.21128,0.34187 -1.96295,10.17321 -3.59965,20.2033 l -1.2271,7.52 0.0417,17.92 c 0.0506,21.71718 0.67571,31.35447 2.52199,38.87999 0.58292,2.376 1.23994,5.184 1.46004,6.24 0.86975,4.17279 2.0334,4.4088 4.35848,0.88395 2.6371,-3.99785 3.8464,-7.63235 4.13266,-12.42053 0.24038,-4.02063 0.59978,-4.90567 1.74354,-4.29354 0.73896,0.39548 0.84828,0.87614 1.08053,4.75122 0.49585,8.27275 2.99785,17.55279 7.19103,26.67188 1.38897,3.02063 1.32087,5.04702 -0.16962,5.04702 -0.62634,0 -1.19711,-0.64592 -3.03972,-3.44 z M 141.44,299.49235 c -0.792,-0.14273 -5.76,-1.00833 -11.04,-1.92354 -5.28,-0.91521 -10.032,-1.79866 -10.56,-1.96321 -0.528,-0.16455 -1.68,-0.4705 -2.56,-0.67988 -1.8345,-0.43649 -2.1226,-1.15487 -0.64,-1.59585 1.79604,-0.53421 2.55839,-1.09877 4.23369,-3.1353 l 1.6737,-2.03458 0.0863,-50.39999 c 0.0939,-54.82841 0.0855,-56.35637 -0.315,-57.73568 -0.29291,-1.00863 -4.57268,-3.66767 -7.19869,-4.47259 -1.14513,-0.351 -0.53943,-0.85111 0.96,-0.79265 0.836,0.0326 5.912,-0.05 11.28,-0.18354 l 9.76,-0.2428 5.72624,1.17704 c 7.53987,1.54983 7.38545,1.47975 10.09277,4.58028 3.54895,4.0644 5.48591,10.01141 6.26628,19.23927 l 0.54103,6.39765 -3.75827,11.29651 c -4.59487,13.81113 -8.60856,21.72308 -14.47514,28.53401 -1.5361,1.78337 -3.10164,3.63849 -3.47897,4.12249 -0.37733,0.484 -0.82271,0.88 -0.98974,0.88 -0.36775,0 -0.7242,-8.31737 -0.7242,-16.89811 v -6.23589 l 1.71426,-3.873 c 3.23775,-7.31497 3.84384,-9.35558 4.3343,-14.59299 0.3916,-4.18165 -0.67926,-11.83642 -1.78972,-12.79339 -1.75223,-1.51001 -5.73092,-4.16559 -6.24295,-4.16685 -0.15225,-3.8e-4 0.332,34.92451 0.69881,50.40024 0.28633,12.07959 1.2214,46.30282 1.26914,46.44972 0.009,0.0274 0.53332,0.66873 1.16542,1.4253 0.63209,0.75656 1.7148,2.50037 2.40601,3.87512 0.99362,1.97621 1.59236,2.74067 2.85968,3.65114 1.28455,0.92287 1.52981,1.23969 1.23481,1.59515 -0.39823,0.47983 -0.3993,0.47987 -2.52976,0.0959 z m 241.18682,-1.05731 c -1.37125,-0.19527 -2.59525,-0.51099 -2.72,-0.70158 -0.15718,-0.24012 -1.11117,-0.26296 -3.10683,-0.0744 -3.27217,0.30921 -5.40185,0.13445 -7.60499,-0.62407 -1.33913,-0.46105 -1.74865,-0.47263 -3.36,-0.0951 -3.43946,0.80596 -4.71824,0.78044 -8.17836,-0.16319 -1.79115,-0.48848 -3.38809,-1.00173 -3.54875,-1.14057 -0.41992,-0.36287 1.23243,-0.91621 2.73595,-0.91621 1.37481,0 3.9228,-1.26972 4.40413,-2.19468 0.6289,-1.20855 1.92377,-6.50039 2.28182,-9.32532 0.45673,-3.60344 0.0952,-8.66566 -1.27276,-17.81978 l -0.86967,-5.81979 0.70247,-4.18946 0.70248,-4.18945 -0.74003,-3.43076 c -0.40702,-1.88691 -0.89393,-3.93475 -1.08202,-4.55075 -2.22027,-7.27121 -3.86813,-26.92144 -2.56275,-30.56 0.37885,-1.056 0.9578,-2.83334 1.28654,-3.94964 l 0.59772,-2.02964 -0.78712,-2.93036 c -1.02161,-3.8033 -2.38466,-10.78382 -2.38466,-12.21246 0,-1.31024 0.0284,-1.3044 -2.32309,-0.4779 -1.0015,0.352 -2.04373,0.64 -2.31606,0.64 -0.78697,0 -3.1494,2.37177 -4.77333,4.79219 -3.04492,4.53837 -4.12426,8.25725 -3.98942,13.74552 0.0693,2.82022 -3.7e-4,3.38966 -0.44924,3.6728 -0.88867,0.56056 -1.14555,-0.0487 -2.83522,-6.72393 -2.11123,-8.34068 -2.08664,-10.31068 0.20627,-16.52752 1.83865,-4.9852 2.35805,-5.77497 4.80009,-7.29872 10.67635,-6.66166 10.08547,-6.47097 15.26319,-4.92563 4.52413,1.35027 7.28061,1.39987 16.09681,0.28961 l 4.48,-0.56418 3.2,2.2284 c 4.72175,3.28811 8.50823,6.19631 8.61832,6.61929 1.68423,6.47106 1.56268,12.11155 -0.38732,17.97217 -0.52704,1.584 -1.05788,3.48371 -1.17964,4.22157 -0.46854,2.83931 -1.48359,2.59032 -2.20789,-0.54157 -1.10753,-4.78897 -3.80489,-9.85499 -7.85727,-14.75708 -1.95055,-2.35954 -2.43266,-2.78637 -2.60784,-2.3088 -0.25207,0.68713 -0.68158,3.1906 -1.72902,10.07787 l -0.76224,5.012 1.43891,4.39378 c 2.33966,7.14426 2.20008,10.04912 -0.98321,20.46223 -1.59384,5.2137 -2.63662,10.02472 -3.22525,14.87999 -0.11735,0.968 -0.4298,2.7384 -0.69434,3.93422 -0.43193,1.95252 -0.42908,2.47864 0.0279,5.15964 0.6284,3.68657 0.62965,4.86277 0.008,7.70614 -1.68536,7.711 -2.37448,11.36147 -2.84642,15.07822 l -0.53307,4.19822 0.9503,2.52178 c 0.52267,1.38698 1.12982,3.09778 1.34922,3.80178 0.47422,1.52163 1.5334,3.25207 2.58238,4.21895 0.7824,0.72118 5.74527,2.98105 6.54664,2.98105 0.2484,0 0.45164,0.162 0.45164,0.36 0,0.97523 3.47359,-0.51436 6.50384,-2.78905 1.02511,-0.76951 2.41431,-1.54734 3.0871,-1.7285 0.67279,-0.18117 1.30896,-0.55273 1.41371,-0.82571 0.40164,-1.04665 0.83141,-9.56291 1.30688,-25.89674 0.51931,-17.8399 1.15592,-37.53367 1.9292,-59.67999 0.73388,-21.01791 0.73398,-21.42234 0.006,-21.95484 -0.90753,-0.6636 -2.52388,-1.06815 -5.84648,-1.46327 -3.63789,-0.43262 -3.68476,-0.6785 -0.48,-2.51823 l 2.48,-1.42366 4.25255,-0.0399 c 5.70519,-0.0535 8.59148,-0.36914 10.11736,-1.10637 0.69867,-0.33756 1.38726,-0.61374 1.5302,-0.61374 1.39335,0 -2.9268,5.2239 -5.14878,6.22587 l -1.31133,0.59133 0.002,2.1114 c 0.001,1.16127 0.144,5.5674 0.31739,9.7914 0.17338,4.224 0.53239,14.592 0.79778,23.04 0.26539,8.448 0.69349,21.048 0.95133,27.99999 0.25783,6.952 0.62729,17.896 0.82102,24.32 0.43036,14.27078 0.79956,21.10245 1.15867,21.44013 0.14942,0.14049 1.45191,0.35624 2.89443,0.47944 2.7621,0.23589 4.25723,-0.43314 4.25723,-1.90502 0,-0.28121 0.27608,-0.49455 0.64,-0.49455 1.9362,0 -0.18741,4.86696 -2.98729,6.84636 l -1.85816,1.31364 -7.41727,0.0394 c -4.0795,0.0217 -8.6375,0.20166 -10.12888,0.4 -3.15363,0.41941 -4.67555,0.40357 -8.10157,-0.0843 z M 143.19558,170.87285 c -0.22426,-0.36287 0.0923,-0.81845 2.10719,-3.03285 0.64058,-0.704 1.79752,-2.504 2.57096,-4 l 1.40627,-2.72 -0.20615,-16.16 c -0.11338,-8.888 -0.3659,-27.752 -0.56116,-41.92 -0.19526,-14.168002 -0.41825,-31.077666 -0.49554,-37.577035 -0.13061,-10.982884 -0.18136,-11.839519 -0.71884,-12.135584 -0.31807,-0.175204 -1.08231,-0.856958 -1.69831,-1.51501 -0.616,-0.658052 -1.76511,-1.55334 -2.55358,-1.989529 -2.95402,-1.634191 -2.57899,-2.621676 0.79611,-2.096221 2.4594,0.382893 3.14791,0.329089 10.50524,-0.820935 l 5.06777,-0.792144 7.8587,0.473334 c 4.32228,0.260333 8.03904,0.576786 8.25946,0.703228 0.97608,0.559923 8.77165,7.843522 8.91488,8.3294 0.0876,0.297272 1.25352,4.500495 2.59086,9.340495 1.33734,4.84 2.84345,10.239999 3.34692,11.999999 0.87454,3.057216 0.92512,3.599796 1.13363,12.16 l 0.21824,8.96 -2.24699,8.320002 c -1.23584,4.576 -2.48208,9.256 -2.76941,10.4 -0.28734,1.144 -1.83346,5.176 -3.43582,8.96 -3.03711,7.17216 -4.74077,9.91898 -15.33973,24.73227 -5.14311,7.18809 -16.71873,18.46773 -18.95234,18.46773 -0.23323,0 -1.27227,0.42324 -2.30899,0.94053 -2.37462,1.18486 -3.21354,1.41862 -3.48937,0.97232 z m 28.63013,-46.44196 c 0.41033,-0.55501 3.1875,-4.02768 6.17149,-7.71705 l 5.42542,-6.70793 1.38698,-4.84296 c 1.93667,-6.762317 2.21353,-11.456393 1.20104,-20.362952 -0.39015,-3.432 -0.71415,-6.759418 -0.72,-7.394264 -0.0366,-3.974766 -6.13653,-18.63141 -8.73818,-20.995835 -0.82742,-0.751973 -5.75017,-2.709577 -6.00373,-2.38747 -0.26188,0.332681 0.0371,71.417571 0.30039,71.417571 0.12679,0 0.56625,-0.4541 0.97659,-1.00911 z M 88.28542,37.199999 C 85.063967,29.687962 85.172176,18.389269 88.5191,12.8 c 0.922352,-1.540302 2.046526,-4.9046925 2.459262,-7.3600001 0.07396,-0.44 0.15409,0.077457 0.178058,1.1499038 0.02397,1.0724471 0.338815,2.8004471 0.69966,3.8400003 2.628623,7.572763 2.520805,9.974468 -0.815656,18.169198 -1.687567,4.144856 -1.811116,4.627297 -1.863897,7.278262 -0.06602,3.31594 -0.04786,3.288984 -0.891107,1.322635 z M 85.635765,10.297871 C 85.494458,10.069232 85.48167,8.8582622 85.607347,7.6068269 85.820136,5.4879707 85.933734,5.2268445 87.259147,3.8098709 88.04196,2.9729804 88.816369,1.8813952 88.980056,1.3841259 89.206044,0.69758971 89.23469,0.90356699 89.099084,2.24 89.000863,3.2079999 88.646958,4.4319999 88.312629,4.9599999 87.046623,6.9593838 86.383897,8.3493618 86.142374,9.5118182 85.976358,10.31086 85.80659,10.574271 85.635765,10.297871 Z"
       id="path1" />
  </g>
</svg>
