<?xml version="1.0" encoding="UTF-8" standalone="no"?>
<!-- Created with Inkscape (http://www.inkscape.org/) -->

<svg
   version="1.1"
   id="svg1"
   height="1587.2001"
   preserveAspectRatio="none"
   viewBox="0 0 1122.5606 1587.2001"
   xmlns="http://www.w3.org/2000/svg"
   xmlns:svg="http://www.w3.org/2000/svg">
  <defs
     id="defs1" />
  <g
     id="g1"
     transform="translate(-25.029598,-14.306976)">
    <path
       style="mix-blend-mode:screen;fill:#070c1f;fill-opacity:0.5"
       d="M 25.037198,1200.9995 V 800.49174 l 2.48,2.05597 c 19.4973,16.16371 24.9704,20.50343 48.08,38.12359 17.1486,13.07514 46.051302,35.21307 72.320002,55.3933 35.1024,26.96646 104.2387,78.65242 137.12,102.51023 26.9784,19.57477 82.1404,61.35947 87.9546,66.62467 0.1514,0.1372 0.1106,0.7452 -0.091,1.3562 -0.538,1.6303 -4.0499,4.8116 -8.8236,7.993 -2.288,1.5248 -5.3182,3.7005 -6.7337,4.8349 -5.261,4.2159 -13.0722,12.4879 -20.4527,21.6593 -1.2395,1.5402 -5.3038,6.3787 -9.0319,10.7522 -16.3997,19.2392 -24.6465,30.1486 -34.555,45.712 -16.363,25.7015 -29.4489,51.5671 -37.2356,73.6 -2.6637,7.5372 -3.5951,10.7384 -5.8656,20.16 -2.6746,11.0984 -2.7079,11.2884 -3.6803,20.96 -0.834,8.2945 -1.0043,11.5132 -1.1348,21.4362 l -0.1536,11.6763 1.4251,9.9237 1.425,9.9238 8.0473,20.64 8.0473,20.64 5.28,9.12 c 6.2566,10.8065 6.211,10.7376 13.8439,20.96 l 5.9735,8 14.0405,13.2879 c 11.2429,10.6401 15.8898,14.787 23.3206,20.8114 8.6272,6.9942 10.4282,8.2786 25.6,18.257 18.6985,12.2977 23.8013,15.1216 40,22.1356 12.1738,5.2712 20.2405,8.2928 30.4,11.3872 11.6451,3.5468 16.1374,4.1902 38.08,5.4541 19.9885,1.1513 30.0262,1.3941 41.28,0.9985 9.0293,-0.3174 12.8283,-0.7685 31.0876,-3.6918 3.9138,-0.6266 13.6144,-1.7527 22.0325,-2.5576 27.3831,-2.6185 37.9585,-4.3871 68,-11.3727 16.8139,-3.9097 36.803,-10.3203 51.8794,-16.6379 9.9198,-4.1568 26.4625,-14.2058 43.9606,-26.7042 5.7416,-4.1012 14.3804,-9.5802 19.2,-12.1775 3.878,-2.09 11.8686,-6.8172 18.88,-11.1694 3.168,-1.9665 8.208,-5.0445 11.2,-6.8401 2.992,-1.7956 6.035,-3.7092 6.7623,-4.2525 l 1.3222,-0.9878 2.83777,2.2284 c 1.5607,1.2257 5.0697,3.7683 7.7977,5.6502 2.728,1.882 8.5511,6.4007 12.9403,10.0415 4.3892,3.6408 10.6703,8.7077 13.958,11.2597 3.2877,2.552 9.9926,8.1002 14.8997,12.3293 11.4218,9.8439 17.2641,14.5206 23.6504,18.932 23.2971,16.0929 45.5521,27.357 73.4316,37.1666 5.5631,1.9575 12.9069,3.4577 19.8852,4.0624 4.9338,0.4274 9.4158,0.4944 25.92,0.3874 l 19.9548,-0.1294 7.20004,-1.032 c 16.69989,-2.3935 30.26559,-6.2658 43.53469,-12.4267 6.5511,-3.0417 7.1573,-3.4011 12.16,-7.21 4.9066,-3.7357 5.5063,-4.3109 8.8044,-8.4442 2.9664,-3.7176 4.102,-5.4955 7.017,-10.9855 3.3836,-6.3728 3.5377,-6.7539 5.6893,-14.08 l 2.2116,-7.5299 0.761,-9.6 c 1.0325,-13.0238 1.0016,-21.3412 -0.1619,-43.68 -1.5617,-29.9849 -1.7008,-38.0446 -1.5377,-89.12 0.1341,-42.0014 0.2169,-47.9805 0.82,-59.2 1.4249,-26.508 1.6432,-59.9766 0.5114,-78.4 -0.7163,-11.6616 -2.4226,-27.0429 -5.4313,-48.96 -2.9866,-21.7567 -4.7001,-34.5712 -6.2258,-46.56 -0.8867,-6.9676 -3.7364,-22.8419 -6.4122,-35.7187 -0.9799,-4.7155 -2.2458,-12.6763 -2.0479,-12.8783 0.206,-0.2104 5.205,-1.3068 9.0362,-1.982 5.9741,-1.0529 7.2128,-1.5278 11.5331,-4.4222 3.2327,-2.1658 4.2639,-3.0636 5.9106,-5.1461 2.3622,-2.9873 4.0823,-5.98627 6.0643,-10.57284 3.9923,-9.23862 4.9879,-14.45253 5.7088,-29.89573 0.4814,-10.31368 0.2737,-15.72105 -0.9413,-24.50427 -0.5235,-3.784 -1.0288,-8.64917 -1.1229,-10.81148 l -0.171,-3.93148 1.3921,1.85148 c 1.4847,1.97457 3.6635,4.16717 7.5375,7.58518 4.6718,4.122 27.3512,18.35394 42.1562,26.45413 l 1.9962,1.09217 v 319.60014 319.6 H 586.3173 25.037198 Z M 1093.8628,923.80869 c -0.2093,-0.50534 -0.3367,-1.76996 -0.283,-2.81026 l 0.098,-1.89147 0.3753,2.71796 c 0.2065,1.49488 0.3339,2.7595 0.2831,2.81026 -0.051,0.0508 -0.2636,-0.32115 -0.4729,-0.82649 z m 48.3966,-45.83653 c -5.8782,-11.78969 -7.1387,-14.52502 -17.3202,-37.5852 -16.7006,-37.82495 -23.4834,-52.1993 -27.4819,-58.23999 -1.3979,-2.112 -3.1043,-4.84692 -3.7918,-6.0776 -0.6876,-1.23067 -1.696,-2.74267 -2.2411,-3.36 -0.545,-0.61732 -1.4659,-1.7958 -2.0464,-2.61884 l -1.0554,-1.49644 4.7049,-26.66356 c 2.5877,-14.66496 4.7285,-26.67235 4.7574,-26.68309 0.9426,-0.35118 28.5171,-21.14239 39.9926,-30.15443 5.2471,-4.12074 9.6033,-7.42913 9.6805,-7.352 0.077,0.0771 0.104,47.49738 0.06,105.3783 l -0.08,105.23805 z M 25.037198,635.3759 v -75.25108 l 1.601,2.66378 c 4.4644,7.42809 12.0319,16.34576 21.3018,25.10249 6.6241,6.25732 13.7689,12.42863 26.7463,23.10196 16.6543,13.69738 29.552802,24.51398 33.870902,28.40412 8.3426,7.51561 18.6063,16.09794 22.4,18.73047 0.616,0.42746 1.6295,1.2267 2.2521,1.77609 0.6227,0.54939 1.9413,1.53599 2.9303,2.19244 2.4759,1.64343 2.642,1.88338 2.0697,2.99012 -0.4141,0.80084 -1.1984,1.15813 -6.7976,3.0967 -10.7666,3.72761 -38.345998,14.87533 -60.354502,24.3955 -11.5611,5.00094 -24.2331,10.25232 -28.16,11.66973 -3.927,1.41741 -9.4933,3.43248 -12.3696,4.47793 -2.8763,1.04545 -5.2883,1.90082 -5.36,1.90082 -0.072,0 -0.1304,-33.86298 -0.1304,-75.25107 z m 0.018,-217.07894 0.019,-105.90998 1.8429,5.28 c 6.4374,18.44412 17.5961,37.47015 33.313,56.8 7.1595,8.80527 17.3024,20.32768 23.2023,26.35796 10.860704,11.10066 29.084702,27.97955 53.907302,49.92833 8.8785,7.85054 19.163,16.99137 22.8546,20.31296 7.4047,6.66252 14.5098,12.90408 20.8102,18.28075 l 4.1247,3.52 -12.2861,0.22997 c -6.7573,0.12648 -19.198,0.59853 -27.646,1.049 -13.8588,0.73898 -17.0488,1.02095 -32.64,2.88505 -9.504,1.13631 -18.935998,2.2904 -20.960002,2.56465 -14.8423,2.01113 -37.2587,7.04664 -45.0773,10.12597 -5.3576,2.11005 -15.4632,8.6437 -19.6427,12.69967 l -1.84,1.78565 z M 1072.8758,515.18697 c 1.4219,-10.23202 1.7873,-21.80068 1.1244,-35.59999 -0.1649,-3.432 -0.296,-6.744 -0.2914,-7.36 0.01,-0.96375 0.048,-1.02259 0.2898,-0.42172 0.4579,1.13631 1.5543,7.68145 1.8933,11.30172 0.6707,7.16399 0.7203,11.00862 0.2186,16.96 -0.4536,5.38089 -2.009,15.05367 -2.5655,15.95409 -0.4727,0.76495 -0.8296,0.32019 -0.6692,-0.8341 z m 42.7579,-17.11999 c 0.01,-19.69692 -1.928,-29.70651 -8.6306,-44.67891 -6.2156,-13.88468 -21.1146,-33.68719 -29.2322,-38.85304 -1.0042,-0.63903 -3.5962,-2.5731 -5.76,-4.29794 -5.1989,-4.14415 -11.7318,-8.22887 -16.4142,-10.26315 -12.2844,-5.33685 -23.4857,-8.90804 -29.44,-9.38602 -1.936,-0.15541 -5.248,-0.51307 -7.36,-0.79481 -3.0837,-0.41135 -5.3527,-0.47016 -11.52,-0.29857 -9.62989,0.26791 -15.47673,0.97647 -18.85523,2.285 -0.5284,0.20467 -0.4777,-0.006 0.36,-1.49715 2.5042,-4.45623 10.54544,-20.57306 12.86463,-25.78434 7.4308,-16.69694 16.9454,-42.35747 21.6042,-58.266 7.9663,-27.20271 10.9136,-43.19946 14.1065,-76.56507 3.5443,-37.03661 4.1194,-45.1718 3.8914,-55.04 -0.4036,-17.46818 -1.7823,-28.61292 -5.7984,-46.87226 -2.9066,-13.21543 -6.1469,-23.29798 -10.4406,-32.487746 -2.9209,-6.251373 -4.6914,-9.252854 -9.6497,-16.358948 -3.2009,-4.587476 -5.2396,-6.790562 -10.6428,-11.501274 -6.70749,-5.847826 -9.78919,-8.096882 -19.04003,-13.895577 -6.3711,-3.993612 -6.7423,-4.193727 -16.16,-8.71226 -19.3738,-9.295365 -31.9772,-13.247569 -50.72,-15.904941 -8.964,-1.27092 -14.6478,-1.576788 -25.5395,-1.374389 -13.5818,0.252388 -21.9597,1.325827 -34.3868,4.405886 -13.7681,3.412455 -22.5041,6.432296 -34.6337,11.972241 -21.113,9.64284 -32.6546,16.308205 -48.95997,28.274681 -6.2316,4.573311 -6.5729,4.84355 -25.92,20.524865 -19.0016,15.401222 -22.7564,18.722042 -34.9018,30.867692 -17.4988,17.49914 -27.827,29.26444 -36.9365,42.07578 -7.8046,10.97625 -20.4823,34.09507 -29.056,52.98625 -1.3013,2.8671 -6.2911,15.37966 -10.1468,25.44433 -2.7424,7.15826 -6.365,19.10747 -7.857,25.91567 -0.6749,3.08 -2.0832,9.056 -3.1295,13.28 -3.6258,14.63783 -5.4546,27.52856 -5.72,40.32 -0.1886,9.08903 0.1536,14.54232 1.3346,21.27191 0.4471,2.54756 0.811,4.85156 0.8086,5.12 0,0.26845 -0.535,-0.40725 -1.1837,-1.50155 -0.6486,-1.09431 -1.239,-1.92996 -1.312,-1.857 -0.2389,0.23898 1.2246,4.62861 2.6769,8.02882 0.7827,1.83257 1.4232,3.56985 1.4232,3.86062 0,1.08566 5.4515,22.46429 7.537,29.5572 0.5952,2.024 1.8012,6.50462 2.6802,9.95693 0.879,3.45231 1.9085,7.05231 2.2877,8 0.6496,1.62302 2.5351,6.99952 2.5351,7.22871 0,0.0581 -0.6691,-0.58093 -1.4868,-1.42002 -1.3794,-1.4154 -1.7342,-2.17298 -4.9106,-10.48562 -4.1165,-10.77288 -4.4946,-11.55982 -11.2456,-23.4055 -5.7599,-10.10665 -7.1529,-12.05925 -12.3644,-17.33137 -6.1716,-6.24336 -9.4667,-8.19942 -16.523,-9.80846 -0.8075,-0.18414 -0.5329,0.20604 2.08,2.95558 6.0931,6.41156 8.8233,10.67457 12.9299,20.18849 2.034,4.71224 6.3219,16.06654 6.1372,16.25123 -0.049,0.0487 -1.5935,-1.14951 -3.4327,-2.66277 -1.8392,-1.51327 -6.152,-4.99415 -9.584,-7.73529 -10.9446,-8.74143 -19.679,-16.33349 -30.24,-26.28491 -8.9638,-8.44638 -8.5716,-8.09389 -17.44,-15.67554 -16.7719,-14.33833 -26.5835,-21.58383 -36.32,-26.82075 -13.0707,-7.03025 -22.4551,-9.68616 -34.1355,-9.66073 -9.4638,0.0206 -16.3432,1.41134 -24.8093,5.01546 -2.5488,1.08506 -2.6387,1.16043 -3.1092,2.60597 -1.2152,3.73326 -1.4718,9.12051 -0.6445,13.53324 1.3727,7.32183 2.7037,11.54441 7.2367,22.95893 3.3737,8.49522 7.1455,15.99703 12.8093,25.47642 13.9129,23.28589 27.1178,40.4686 51.1072,66.50295 4.73,5.13323 7.0825,7.14663 11.0793,9.48221 l 2.2158,1.29484 h -1.176 c -0.6469,0 -1.2651,0.144 -1.3738,0.32 -0.1088,0.176 -0.1533,0.31489 -0.099,0.30865 0.054,-0.006 1.3949,-0.20875 2.9789,-0.45001 1.584,-0.24126 2.924,-0.39609 2.9779,-0.34407 0.1312,0.12681 -2.9126,0.99261 -4.8693,1.38501 l -1.5713,0.31512 -2.912,-2.76735 c -3.6615,-3.47968 -7.321,-6.55011 -13.6099,-11.41917 -2.7195,-2.1055 -6.464,-5.26818 -8.3212,-7.02818 -3.4057,-3.22748 -7.4538,-6.7612 -20.3343,-17.75024 -3.872,-3.30343 -8.768,-7.5445 -10.88,-9.4246 -2.112,-1.8801 -6.288,-5.09087 -9.28,-7.13505 -8.0905,-5.52755 -26.0754,-18.46393 -41.28,-29.69235 -8.759,-6.46843 -21.9309,-14.9704 -49.3689,-31.86575 -4.9769,-3.06461 -13.5449,-8.42984 -19.04,-11.92274 -24.3291,-15.46455 -48.3242,-29.64911 -72.8711,-43.0773 -3.96,-2.16629 -11.808,-6.49174 -17.44,-9.61212 -17.5197,-9.70669 -21.5862,-11.79378 -36.16,-18.55842 -16.5302,-7.67281 -37.1535,-16.03169 -58.5071,-23.71378 -5.9772,-2.1503 -17.2079,-5.80184 -31.0929,-10.10946 -4.0916,-1.26937 -16.4387,-4.02522 -21.202,-4.73227 -5.5646,-0.82597 -12.7507,-1.21407 -18.958,-1.02386 -8.403398,0.2575 -15.926402,1.54283 -25.712502,4.39306 -11.6407,3.39039 -18.0555,6.213 -28.1285,12.37693 -6.2168,3.80419 -9.0872,6.01997 -13.3375,10.29567 -4.8682,4.89719 -8.2343,9.94023 -11.6836,17.504 l -1.4448,3.16828 -0.01,-121.68 -0.01,-121.680004 H 586.3099 1147.5901 l -0.08,243.425684 -0.08,243.42567 -1.12,0.24115 c -7.7981,1.67904 -30.1372,6.34749 -30.3736,6.34749 -0.1961,0 -0.3111,-3.59947 -0.3094,-9.67999 z M 618.817,338.42981 c -1.7047,-6.20096 -3.2308,-15.21324 -3.7379,-22.07393 -0.3382,-4.57581 -0.2126,-14.45925 0.2131,-16.7689 l 0.1769,-0.96 -0.4982,0.86484 c -0.274,0.47566 -0.9555,2.70766 -1.5145,4.96 -0.9891,3.98514 -1.0165,4.2886 -1.0219,11.29516 0,7.02236 0.02,7.30374 1.0194,11.40483 0.5638,2.31266 1.6083,5.62466 2.3211,7.36 1.5878,3.86573 4.2096,9.4345 4.3674,9.27669 0.064,-0.0637 -0.5327,-2.47513 -1.3254,-5.35869 z M 455.2349,308.77555 c 0.1321,-0.21371 0.093,-0.38857 -0.088,-0.38857 -0.5591,0 -0.9914,1.17569 -0.963,2.61896 l 0.027,1.38104 0.3916,-1.61143 c 0.2153,-0.88628 0.4996,-1.78628 0.6316,-2 z m -1.3369,1.37143 c 0.1458,-1.24895 0.1433,-1.25171 -0.7218,-0.78874 -0.9963,0.53321 -0.7482,1.74369 0.386,1.88348 0.1128,0.0139 0.2639,-0.47874 0.3358,-1.09474 z M 239.3076,493.10973 c -1.5009,-0.11653 -1.8307,-0.34232 -7.52,-5.14873 -6.2337,-5.26625 -12.013,-10.06245 -28.9904,-24.05884 -5.632,-4.64312 -14.272,-11.97968 -19.2,-16.30348 -4.928,-4.3238 -12.622,-11.02069 -17.0978,-14.88199 l -8.1378,-7.02053 1.0496,-0.27198 c 1.0019,-0.25962 1.1709,-0.15848 3.717,2.22541 19.7269,18.4703 41.0139,37.01612 60.949,53.10038 1.32,1.06501 6.216,4.21025 10.88,6.98942 4.664,2.77917 8.6168,5.1778 8.784,5.33031 0.2997,0.27334 -1.2489,0.28732 -4.4336,0.04 z m 419.0992,-60.8565 c -1.2708,-1.37426 -2.2197,-2.58942 -2.1088,-2.70036 0.1805,-0.18047 2.844,2.56262 4.3625,4.49276 1.3013,1.65406 -0.09,0.54772 -2.2537,-1.7924 z M 812.55727,179.90698 c 0,-0.088 0.072,-0.16 0.16,-0.16 0.088,0 0.16,0.072 0.16,0.16 0,0.088 -0.072,0.16 -0.16,0.16 -0.088,0 -0.16,-0.072 -0.16,-0.16 z"
       id="path10" />
  </g>
</svg>
