<?xml version="1.0" encoding="UTF-8" standalone="no"?>
<!-- Created with Inkscape (http://www.inkscape.org/) -->

<svg
   version="1.1"
   id="svg1"
   preserveAspectRatio="none"
   viewBox="0 0 1122.5607 1587.2013"
   xmlns="http://www.w3.org/2000/svg"
   xmlns:svg="http://www.w3.org/2000/svg">
  <defs
     id="defs1" />
  <g
     id="g1"
     transform="translate(-490.95536,-73.978054)">
    <path
       style="opacity:0.40208;mix-blend-mode:overlay;fill:#020817;fill-opacity:1"
       d="m 657.03593,1661.0935 c 0,-0.8709 14.98335,-40.67 25.26669,-67.1138 l 13.5017,-34.72 12.18133,-26.3703 c 11.2236,-24.2969 13.22573,-28.3727 25.46483,-51.84 12.78279,-24.5097 14.55609,-27.6952 47.04503,-84.5097 20.44436,-35.7518 35.5905,-61.8801 38.39831,-66.24 8.78851,-13.6469 32.01676,-46.9332 47.56412,-68.16 13.4093,-18.3078 17.59428,-23.7431 29.96236,-38.9146 7.90683,-9.699 18.72256,-22.731 24.03497,-28.96 5.31241,-6.229 14.70223,-17.3734 20.86627,-24.7654 6.16404,-7.392 17.12277,-20.496 24.35273,-29.12 7.22996,-8.624 16.17471,-19.424 19.87722,-24 3.70252,-4.576 9.50413,-11.704 12.89246,-15.84 3.38835,-4.136 9.20205,-11.48 12.91935,-16.32 9.2779,-12.0802 13.5122,-17.3654 16.0227,-20.0001 1.8012,-1.8902 2.1038,-2.1026 1.9375,-1.36 l -0.1969,0.88 h 6.6289 c 5.7667,0 6.6049,0.063 6.4444,0.481 -0.1015,0.2645 -0.4107,1.8125 -0.6871,3.44 -0.699,4.1165 -4.9776,25.5696 -6.7169,33.6791 -3.1041,14.4729 -3.4923,16.5976 -6.0628,33.1838 -1.4021,9.0468 -2.9431,21.2239 -3.3531,26.4962 -0.7,9.0028 -1.0465,25.9236 -0.6914,33.76 0.1915,4.224 0.4944,14.16 0.6732,22.08 0.4802,21.2676 1.6362,34.1113 3.8508,42.7852 0.864,3.384 2.4431,7.6779 4.3889,11.9348 0.9206,2.0137 2.9196,7.7308 4.6717,13.3604 2.7424,8.8115 3.7486,11.4627 9.6234,25.3565 l 6.5609,15.5161 8.9922,15.5055 c 8.5513,14.7449 9.3761,16.0359 16.8185,26.3234 7.3234,10.123 8.3961,11.4419 16.6969,20.5279 l 8.8708,9.7097 12.9676,9.9992 12.9676,9.9991 17.4324,6.9269 17.4325,6.9268 6.9434,1.0946 6.9434,1.0946 13.0566,-0.7508 13.0566,-0.7507 7.6049,-2.5571 7.6049,-2.557 6.9259,-4.4226 6.9258,-4.4225 6.5646,-7.2 c 3.6105,-3.96 7.1165,-7.7823 7.791,-8.494 0.987,-1.0413 2.1528,-3.4464 5.9715,-12.32 l 4.7451,-11.026 2.0069,-25.44 2.007,-25.44 -0.9781,-5.6 c -1.0702,-6.1274 -5.2659,-23.8757 -8.7374,-36.96 -3.0357,-11.4417 -7.5608,-29.1337 -9.3715,-36.64 -2.5973,-10.767 -7.4763,-27.1217 -9.9761,-33.44 -0.4215,-1.0653 2.7962,1.9849 5.2322,4.96 1.2249,1.496 3.3528,4.304 4.7287,6.24 6.3248,8.8995 10.8965,14.7648 20.328,26.08 10.0765,12.089 34.9582,39.8791 46.7954,52.2654 20.921,21.8914 56.7166,57.0326 79.1121,77.6657 30.7775,28.3556 54.6394,48.9639 100.9591,87.1933 41.761,34.467 70.4678,58.662 83.36,70.2585 6.512,5.8576 16.088,14.39 21.28,18.9609 5.192,4.5709 9.9168,8.7575 10.4996,9.3035 0.5828,0.546 0.9817,0.7767 0.8865,0.5127 -0.095,-0.264 -3.1113,-10.848 -6.7025,-23.52 -3.5912,-12.672 -10.6472,-37.296 -15.68,-54.72 -9.1174,-31.5655 -9.1905,-31.7973 -20.2036,-64.1131 -10.3142,-30.2647 -11.6817,-34.0299 -20.4557,-56.32 -16.8283,-42.752 -53.573,-126.2547 -68.1038,-154.7669 -6.3423,-12.4446 -8.6935,-16.6261 -20.2428,-36 -23.7457,-39.8332 -38.2007,-60.4162 -53.5805,-76.2951 -10.9931,-11.3498 -18.7867,-18.2561 -26.0972,-23.1263 -8.2372,-5.4875 -14.0064,-8.8524 -16.64,-9.7052 -1.9674,-0.6371 -3.4453,-1.2949 -3.2801,-1.4601 0.082,-0.082 1.3576,0.2909 2.8346,0.8286 6.3299,2.3047 14.9887,4.7511 34.5255,9.7545 21.9122,5.6117 27.9405,7.4821 46.0494,14.2878 18.2428,6.8562 24.1552,9.4655 44.5891,19.6789 l 13.6785,6.8368 16.5615,11.0896 c 9.1088,6.0993 16.8849,11.3798 17.2802,11.7346 0.3953,0.3548 0.7709,0.5845 0.8346,0.5105 0.064,-0.074 -14.2278,-20.5283 -31.7588,-45.4539 l -31.8745,-45.3194 -20.1097,-20.9207 c -27.781,-28.9014 -47.293,-48.01505 -61.9102,-60.64605 -14.7841,-12.77518 -17.933,-15.20954 -23.3691,-18.06611 -6.0279,-3.16753 -7.0612,-3.87046 -12.2849,-8.35695 -9.8344,-8.44647 -12.2029,-9.99852 -18.2461,-11.95636 -1.54,-0.49891 -2.8,-1.01095 -2.8,-1.13786 0,-0.12691 0.5201,-0.65951 1.1559,-1.18355 1.1437,-0.94272 1.1485,-0.9568 0.4526,-1.32923 -0.3869,-0.20702 -0.6314,-0.44841 -0.5434,-0.53641 0.088,-0.088 0.4443,-0.008 0.7916,0.17801 0.52,0.27829 1.0973,0.061 3.267,-1.22949 1.8205,-1.08281 3.1427,-1.63328 4.2758,-1.78024 2.5034,-0.32464 6.8924,-1.47914 17.5303,-4.61122 5.3406,-1.57241 12.8782,-3.74154 16.7502,-4.82029 3.872,-1.07875 11.2197,-3.2352 16.3284,-4.7921 13.2964,-4.05221 53.1147,-14.94499 63.6716,-17.41814 26.1743,-6.1318 87.1552,-18.20556 134.16,-26.56267 l 23.76,-4.22435 v 398.65581 398.6558 l -478.2401,5e-4 c -263.03196,3e-4 -478.23997,-0.038 -478.23997,-0.086 z M 490.95592,1314.1342 v -204.9271 l 5.04,-1.5942 c 35.95608,-11.3733 44.76634,-13.9536 81.36,-23.8281 51.52191,-13.9028 105.77459,-26.5972 157.28001,-36.8014 13.68355,-2.7109 16.07348,-3.0973 21.89702,-3.5397 5.64787,-0.4291 7.30078,-0.4547 6.71632,-0.1041 -0.0733,0.044 -1.78934,0.9029 -3.81334,1.9087 -2.024,1.0058 -8.72,4.54 -14.88,7.8538 -6.16,3.3139 -15.48378,8.2392 -20.71951,10.9452 -5.23574,2.706 -9.46252,4.977 -9.39284,5.0466 0.0697,0.07 8.81745,-1.9638 19.43951,-4.5188 15.19652,-3.6554 23.74614,-5.5018 40.11284,-8.6629 11.44001,-2.2095 24.25601,-4.7313 28.48001,-5.604 4.224,-0.8726 9.048,-1.8083 10.72,-2.0792 1.672,-0.2709 3.508,-0.5704 4.08,-0.6655 1.35766,-0.2257 1.32926,0.2396 -0.0549,0.8997 -1.50513,0.7178 -7.11091,5.5836 -12.62159,10.9556 -5.23409,5.1024 -10.97036,11.6878 -27.60565,31.6922 -10.49002,12.6145 -14.97235,18.4348 -43.36443,56.3087 -30.43861,40.6039 -32.15334,42.9651 -44.2701,60.96 -19.61391,29.1291 -38.24579,55.5411 -58.19585,82.4968 -17.19059,23.2272 -19.3456,26.2932 -35.31206,50.24 -22.37374,33.5565 -36.75733,56.1022 -53.28827,83.5272 -18.84627,31.2662 -28.00841,47.6697 -40.99567,73.3968 l -10.6115,21.0208 z M 695.75593,832.26776 c -2.43011,-0.93142 -4.48,-1.99309 -4.48,-2.32026 0,-0.0652 0.684,0.15282 1.52,0.48447 7.34705,2.9146 7.35531,2.9184 6.29333,2.893 -0.33733,-0.008 -1.83733,-0.48381 -3.33333,-1.05721 z m -8,-3.47929 c -1.32,-0.53035 -6.648,-2.31897 -11.84,-3.9747 -8.59843,-2.74204 -11.87913,-3.56856 -36.8,-9.27116 -37.2611,-8.5264 -36.84303,-8.45928 -81.75335,-13.12484 l -35.52666,-3.69073 -13.12,-0.14115 c -7.216,-0.0776 -14.16413,-0.22209 -15.44028,-0.32103 l -2.32028,-0.17988 8.4e-4,-362.05266 8.4e-4,-362.052661 h 103.20772 103.20772 l -4.41891,5.36 c -9.63808,11.690699 -10.87814,13.682295 -13.9811,22.454351 -3.835,10.84154 -7.09649,23.16241 -11.23923,42.45814 -2.03665,9.48613 -4.2762,20.55951 -4.97679,24.60751 -5.67184,32.77181 -10.33424,72.07391 -11.16069,94.07999 -0.18507,4.928 -0.4742,18.392 -0.6425,29.92 -0.1683,11.528 -0.5228,28.808 -0.78778,38.4 -0.26498,9.592 -0.48308,22.768 -0.48466,29.28 -0.003,11.05782 0.0807,12.83358 1.26307,26.88 2.28736,27.17465 6.94657,54.19525 14.22083,82.47228 4.2531,16.53294 9.1228,31.80916 18.84851,59.12772 7.62237,21.41047 18.00472,45.69956 26.55436,62.12288 9.48075,18.21195 29.82902,51.33197 36.44321,59.31711 1.31205,1.584 8.36027,10.08 15.66272,18.88 7.30244,8.8 17.3657,21.184 22.36279,27.52 25.63165,32.49932 34.17007,42.46595 46.61585,54.41318 6.98668,6.70681 29.80966,26.85317 38.02378,33.56446 4.43096,3.62028 4.76759,3.92851 3.68,3.36953 -3.4781,-1.78763 -11.63315,-7.6536 -26.67458,-19.18717 -20.79686,-15.94676 -23.8202,-18.22858 -36.20542,-27.32543 -17.51388,-12.86381 -28.74077,-19.9077 -48.64001,-30.51731 l -15.68,-8.36006 -16.96,-6.76287 -16.96,-6.76287 -16.96,-4.73482 -16.96,-4.73483 -16.16,-2.43289 c -8.888,-1.33808 -21.344,-3.02034 -27.68,-3.73834 -12.2521,-1.38843 -41.43631,-3.82682 -45.82995,-3.82917 -3.16353,-0.002 -30.67836,4.81092 -32.3414,5.65682 -1.55814,0.79255 -5.08008,4.89935 -6.03496,7.03713 -0.81253,1.81909 -0.82804,1.98039 -0.63472,6.60239 0.30054,7.1857 1.46026,10.87677 7.15813,22.78225 5.66629,11.8395 9.28314,17.54129 16.98347,26.77364 9.56182,11.46419 20.29443,21.48681 37.49943,35.01873 10.6135,8.34763 15.56201,11.98347 28.42067,20.88162 4.63136,3.20489 15.14336,10.67286 23.36,16.59549 14.86016,10.71134 20.36529,14.44738 25.09933,17.03356 2.2685,1.23926 2.88202,1.67297 2.24,1.58351 -0.132,-0.0184 -1.32,-0.46736 -2.64,-0.99772 z M 1040.2534,698.37964 c 2.451,-3.77663 4.6225,-6.90581 4.6225,-6.66093 0,0.60201 -2.577,5.59213 -3.382,6.54872 -0.4591,0.54571 -1.0546,0.99221 -1.3232,0.99221 -0.4178,0 -0.4058,-0.12723 0.083,-0.88 z m 110.8625,-0.86865 c 0,-0.37476 2.9693,-4.98881 3.116,-4.84207 0.091,0.0912 -0.5108,1.25142 -1.3378,2.57827 -1.3545,2.17315 -1.7782,2.71255 -1.7782,2.2638 z m 3.7057,-6.41135 c 0.123,-0.352 1.0423,-2.368 2.0428,-4.48 3.344,-7.05855 2.2568,-5.53338 35.3776,-49.62957 10.5633,-14.06373 24.8265,-32.91443 31.6961,-41.89043 38.0915,-49.77161 42.6424,-56.04405 92.2534,-127.15059 20.1461,-28.87502 25.4535,-36.92955 29.6101,-44.93602 2.5875,-4.98389 3.428,-6.9895 4.9364,-11.7791 1.7294,-5.49126 1.813,-5.91133 1.7155,-8.62259 l -0.1024,-2.85012 -1.4989,-1.10025 c -1.4508,-1.06503 -1.5705,-1.0947 -3.7375,-0.92661 -5.1686,0.40092 -11.8424,5.26541 -30.4087,22.16466 -10.2757,9.35302 -16.6408,14.97073 -25.59,22.5855 -27.3899,23.30548 -67.218,58.95449 -94.4,84.4947 -40.5736,38.12284 -95.1257,94.87692 -120.7668,125.64143 -13.4982,16.19539 -28.5133,35.06162 -28.5133,35.82665 0,0.0946 -0.504,0.72214 -1.12,1.39465 -0.616,0.67252 -1.12,1.13149 -1.12,1.01994 0,-0.11155 0.8779,-2.26369 1.9509,-4.78253 1.073,-2.51885 2.9526,-7.67572 4.1769,-11.45972 1.2242,-3.784 2.7359,-8.32 3.3592,-10.08 1.3095,-3.69762 3.4785,-10.48991 4.7516,-14.88 1.5522,-5.35275 3.3493,-10.91805 5.0116,-15.52 4.8449,-13.41347 6.2021,-17.38494 8.4259,-24.65686 4.5594,-14.90942 5.8836,-18.65258 21.3331,-60.30313 1.0771,-2.904 4.1849,-11.04 6.9061,-18.08 2.7212,-7.04 6.8622,-17.912 9.2022,-24.16 2.34,-6.248 6.8765,-17.912 10.0811,-25.92 11.2894,-28.211 17.6249,-45.64238 30.8792,-84.96 7.626,-22.62216 14.1091,-42.30684 16.7572,-50.88 1.1649,-3.7715 6.2121,-22.63618 8.6647,-32.38552 0.5404,-2.14804 2.4087,-9.06004 4.1518,-15.36 5.9251,-21.41441 7.9503,-29.82523 11.2335,-46.65448 3.5415,-18.15315 5.5333,-30.01771 6.8625,-40.87887 0.7492,-6.12111 0.8122,-7.65598 0.808,-19.68 -0.01,-20.90059 -0.6424,-28.40292 -4.3415,-51.28112 -2.5991,-16.07407 -4.2729,-24.85156 -6.2243,-32.64 -1.3428,-5.35968 -8.9524,-27.891775 -10.348,-30.640804 l -0.8532,-1.680802 217.7647,0.0025 217.7647,0.0025 V 242.89431 411.80549 l -15.6005,0.18203 -15.6004,0.18203 -15.68,2.45297 -15.68,2.45297 -21.12,5.26904 c -20.7024,5.16485 -21.4871,5.38948 -39.68,11.35945 l -18.56,6.0904 -25.12,11.08744 -25.12,11.08745 -21.28,12.01992 c -18.2352,10.30003 -24.1112,13.81677 -41.0667,24.57767 -11.1985,7.10717 -26.4767,17.1595 -35.2,23.15988 l -15.4133,10.60213 -20.8498,17.3948 c -22.0925,18.43162 -24.8865,20.96241 -52.9102,47.92523 -6.6,6.35014 -12.9948,12.47835 -14.2107,13.61823 -1.2158,1.13988 -7.8729,8.16247 -14.7936,15.60575 -11.8582,12.75355 -13.198,14.32061 -23.2559,27.2 -12.493,15.99772 -19.3386,25.1896 -23.8815,32.06676 -3.4529,5.22726 -4.0457,6.02781 -3.6727,4.96 z"
       id="path1" />
  </g>
</svg>
